<?xml version="1.0" encoding="UTF-8"?>
<!--Generator: Apple Native CoreSVG 129-->
<!DOCTYPE svg
PUBLIC "-//W3C//DTD SVG 1.1//EN"
       "http://www.w3.org/Graphics/SVG/1.1/DTD/svg11.dtd">
<svg version="1.1" xmlns="http://www.w3.org/2000/svg" xmlns:xlink="http://www.w3.org/1999/xlink" width="3300" height="2200">
 <!--glyph: "uni1009D0.medium", point size: 100.000000, font version: "Version 16.0d9e1", template writer version: "8"-->
 <g id="Notes">
  <rect height="2200" id="artboard" style="fill:white;opacity:1" width="3300" x="0" y="0"/>
  <line id="" style="fill:none;stroke:black;opacity:1;stroke-width:0.5;" x1="263" x2="3036" y1="292" y2="292"/>
  <text style="stroke:none;fill:black;font-family:-apple-system,&quot;SF Pro Display&quot;,&quot;SF Pro Text&quot;,Helvetica,sans-serif;font-weight:bold;" transform="matrix(1 0 0 1 263 322)">Weight/Scale Variations</text>
  <text style="stroke:none;fill:black;font-family:-apple-system,&quot;SF Pro Display&quot;,&quot;SF Pro Text&quot;,Helvetica,sans-serif;text-anchor:middle;" transform="matrix(1 0 0 1 559.711 322)">Ultralight</text>
  <text style="stroke:none;fill:black;font-family:-apple-system,&quot;SF Pro Display&quot;,&quot;SF Pro Text&quot;,Helvetica,sans-serif;text-anchor:middle;" transform="matrix(1 0 0 1 856.422 322)">Thin</text>
  <text style="stroke:none;fill:black;font-family:-apple-system,&quot;SF Pro Display&quot;,&quot;SF Pro Text&quot;,Helvetica,sans-serif;text-anchor:middle;" transform="matrix(1 0 0 1 1153.13 322)">Light</text>
  <text style="stroke:none;fill:black;font-family:-apple-system,&quot;SF Pro Display&quot;,&quot;SF Pro Text&quot;,Helvetica,sans-serif;text-anchor:middle;" transform="matrix(1 0 0 1 1449.84 322)">Regular</text>
  <text style="stroke:none;fill:black;font-family:-apple-system,&quot;SF Pro Display&quot;,&quot;SF Pro Text&quot;,Helvetica,sans-serif;text-anchor:middle;" transform="matrix(1 0 0 1 1746.56 322)">Medium</text>
  <text style="stroke:none;fill:black;font-family:-apple-system,&quot;SF Pro Display&quot;,&quot;SF Pro Text&quot;,Helvetica,sans-serif;text-anchor:middle;" transform="matrix(1 0 0 1 2043.27 322)">Semibold</text>
  <text style="stroke:none;fill:black;font-family:-apple-system,&quot;SF Pro Display&quot;,&quot;SF Pro Text&quot;,Helvetica,sans-serif;text-anchor:middle;" transform="matrix(1 0 0 1 2339.98 322)">Bold</text>
  <text style="stroke:none;fill:black;font-family:-apple-system,&quot;SF Pro Display&quot;,&quot;SF Pro Text&quot;,Helvetica,sans-serif;text-anchor:middle;" transform="matrix(1 0 0 1 2636.69 322)">Heavy</text>
  <text style="stroke:none;fill:black;font-family:-apple-system,&quot;SF Pro Display&quot;,&quot;SF Pro Text&quot;,Helvetica,sans-serif;text-anchor:middle;" transform="matrix(1 0 0 1 2933.4 322)">Black</text>
  <line id="" style="fill:none;stroke:black;opacity:1;stroke-width:0.5;" x1="263" x2="3036" y1="1903" y2="1903"/>
  <g id="" transform="matrix(1 0 0 1 263 1933)">
   <path d="M 9.24805 0.830078 C 13.5547 0.830078 17.1387 -2.74414 17.1387 -7.05078 C 17.1387 -11.3574 13.5449 -14.9316 9.23828 -14.9316 C 4.94141 -14.9316 1.36719 -11.3574 1.36719 -7.05078 C 1.36719 -2.74414 4.95117 0.830078 9.24805 0.830078 Z M 9.24805 -0.654297 C 5.70312 -0.654297 2.87109 -3.49609 2.87109 -7.05078 C 2.87109 -10.6055 5.69336 -13.4473 9.23828 -13.4473 C 12.793 -13.4473 15.6348 -10.6055 15.6445 -7.05078 C 15.6543 -3.49609 12.8027 -0.654297 9.24805 -0.654297 Z M 9.22852 -3.62305 C 9.69727 -3.62305 9.9707 -3.93555 9.9707 -4.45312 L 9.9707 -6.31836 L 12.002 -6.31836 C 12.5 -6.31836 12.832 -6.57227 12.832 -7.04102 C 12.832 -7.51953 12.5195 -7.7832 12.002 -7.7832 L 9.9707 -7.7832 L 9.9707 -9.81445 C 9.9707 -10.332 9.69727 -10.6543 9.22852 -10.6543 C 8.75977 -10.6543 8.50586 -10.3125 8.50586 -9.81445 L 8.50586 -7.7832 L 6.49414 -7.7832 C 5.97656 -7.7832 5.64453 -7.51953 5.64453 -7.04102 C 5.64453 -6.57227 5.99609 -6.31836 6.49414 -6.31836 L 8.50586 -6.31836 L 8.50586 -4.45312 C 8.50586 -3.95508 8.75977 -3.62305 9.22852 -3.62305 Z"/>
  </g>
  <g id="" transform="matrix(1 0 0 1 281.506 1933)">
   <path d="M 11.709 2.91016 C 17.1582 2.91016 21.6699 -1.61133 21.6699 -7.05078 C 21.6699 -12.5 17.1484 -17.0117 11.6992 -17.0117 C 6.25977 -17.0117 1.74805 -12.5 1.74805 -7.05078 C 1.74805 -1.61133 6.26953 2.91016 11.709 2.91016 Z M 11.709 1.25 C 7.09961 1.25 3.41797 -2.44141 3.41797 -7.05078 C 3.41797 -11.6602 7.08984 -15.3516 11.6992 -15.3516 C 16.3086 -15.3516 20 -11.6602 20.0098 -7.05078 C 20.0195 -2.44141 16.3184 1.25 11.709 1.25 Z M 11.6797 -2.66602 C 12.207 -2.66602 12.5098 -3.01758 12.5098 -3.59375 L 12.5098 -6.23047 L 15.3223 -6.23047 C 15.8691 -6.23047 16.25 -6.51367 16.25 -7.03125 C 16.25 -7.55859 15.8887 -7.86133 15.3223 -7.86133 L 12.5098 -7.86133 L 12.5098 -10.6836 C 12.5098 -11.25 12.207 -11.6113 11.6797 -11.6113 C 11.1621 -11.6113 10.8789 -11.2305 10.8789 -10.6836 L 10.8789 -7.86133 L 8.07617 -7.86133 C 7.50977 -7.86133 7.13867 -7.55859 7.13867 -7.03125 C 7.13867 -6.51367 7.5293 -6.23047 8.07617 -6.23047 L 10.8789 -6.23047 L 10.8789 -3.59375 C 10.8789 -3.03711 11.1621 -2.66602 11.6797 -2.66602 Z"/>
  </g>
  <g id="" transform="matrix(1 0 0 1 304.924 1933)">
   <path d="M 14.9707 5.66406 C 21.9336 5.66406 27.6953 -0.0976562 27.6953 -7.05078 C 27.6953 -14.0137 21.9238 -19.7754 14.9609 -19.7754 C 8.00781 -19.7754 2.25586 -14.0137 2.25586 -7.05078 C 2.25586 -0.0976562 8.01758 5.66406 14.9707 5.66406 Z M 14.9707 3.84766 C 8.93555 3.84766 4.08203 -1.01562 4.08203 -7.05078 C 4.08203 -13.0957 8.92578 -17.9492 14.9609 -17.9492 C 21.0059 -17.9492 25.8594 -13.0957 25.8691 -7.05078 C 25.8789 -1.01562 21.0156 3.84766 14.9707 3.84766 Z M 14.9414 -1.38672 C 15.5176 -1.38672 15.8594 -1.77734 15.8594 -2.38281 L 15.8594 -6.13281 L 19.7754 -6.13281 C 20.3711 -6.13281 20.7812 -6.46484 20.7812 -7.02148 C 20.7812 -7.59766 20.3906 -7.93945 19.7754 -7.93945 L 15.8594 -7.93945 L 15.8594 -11.8652 C 15.8594 -12.4805 15.5176 -12.8711 14.9414 -12.8711 C 14.375 -12.8711 14.0527 -12.4609 14.0527 -11.8652 L 14.0527 -7.93945 L 10.1465 -7.93945 C 9.53125 -7.93945 9.13086 -7.59766 9.13086 -7.02148 C 9.13086 -6.46484 9.55078 -6.13281 10.1465 -6.13281 L 14.0527 -6.13281 L 14.0527 -2.38281 C 14.0527 -1.79688 14.375 -1.38672 14.9414 -1.38672 Z"/>
  </g>
  <text style="stroke:none;fill:black;font-family:-apple-system,&quot;SF Pro Display&quot;,&quot;SF Pro Text&quot;,Helvetica,sans-serif;font-weight:bold;" transform="matrix(1 0 0 1 263 1953)">Design Variations</text>
  <text style="stroke:none;fill:black;font-family:-apple-system,&quot;SF Pro Display&quot;,&quot;SF Pro Text&quot;,Helvetica,sans-serif;" transform="matrix(1 0 0 1 263 1971)">Symbols are supported in up to nine weights and three scales.</text>
  <text style="stroke:none;fill:black;font-family:-apple-system,&quot;SF Pro Display&quot;,&quot;SF Pro Text&quot;,Helvetica,sans-serif;" transform="matrix(1 0 0 1 263 1989)">For optimal layout with text and other symbols, vertically align</text>
  <text style="stroke:none;fill:black;font-family:-apple-system,&quot;SF Pro Display&quot;,&quot;SF Pro Text&quot;,Helvetica,sans-serif;" transform="matrix(1 0 0 1 263 2007)">symbols with the adjacent text.</text>
  <line id="" style="fill:none;stroke:#00AEEF;stroke-width:0.5;opacity:1.0;" x1="776" x2="776" y1="1919" y2="1933"/>
  <g id="" transform="matrix(1 0 0 1 776 1933)">
   <path d="M 3.31055 0.126953 C 3.82812 0.126953 4.08203 -0.0683594 4.26758 -0.605469 L 5.52734 -4.0625 L 11.2891 -4.0625 L 12.5488 -0.605469 C 12.7344 -0.0683594 12.9883 0.126953 13.4961 0.126953 C 14.0137 0.126953 14.3457 -0.185547 14.3457 -0.673828 C 14.3457 -0.839844 14.3164 -0.986328 14.2383 -1.20117 L 9.6582 -13.3887 C 9.43359 -13.9941 9.0332 -14.2871 8.4082 -14.2871 C 7.80273 -14.2871 7.39258 -13.9941 7.17773 -13.3984 L 2.59766 -1.19141 C 2.51953 -0.976562 2.49023 -0.830078 2.49023 -0.664062 C 2.49023 -0.175781 2.80273 0.126953 3.31055 0.126953 Z M 6.00586 -5.53711 L 8.37891 -12.1094 L 8.42773 -12.1094 L 10.8008 -5.53711 Z"/>
  </g>
  <line id="" style="fill:none;stroke:#00AEEF;stroke-width:0.5;opacity:1.0;" x1="792.836" x2="792.836" y1="1919" y2="1933"/>
  <text style="stroke:none;fill:black;font-family:-apple-system,&quot;SF Pro Display&quot;,&quot;SF Pro Text&quot;,Helvetica,sans-serif;font-weight:bold;" transform="matrix(1 0 0 1 776 1953)">Margins</text>
  <text style="stroke:none;fill:black;font-family:-apple-system,&quot;SF Pro Display&quot;,&quot;SF Pro Text&quot;,Helvetica,sans-serif;" transform="matrix(1 0 0 1 776 1971)">Leading and trailing margins on the left and right side of each symbol</text>
  <text style="stroke:none;fill:black;font-family:-apple-system,&quot;SF Pro Display&quot;,&quot;SF Pro Text&quot;,Helvetica,sans-serif;" transform="matrix(1 0 0 1 776 1989)">can be adjusted by modifying the x-location of the margin guidelines.</text>
  <text style="stroke:none;fill:black;font-family:-apple-system,&quot;SF Pro Display&quot;,&quot;SF Pro Text&quot;,Helvetica,sans-serif;" transform="matrix(1 0 0 1 776 2007)">Modifications are automatically applied proportionally to all</text>
  <text style="stroke:none;fill:black;font-family:-apple-system,&quot;SF Pro Display&quot;,&quot;SF Pro Text&quot;,Helvetica,sans-serif;" transform="matrix(1 0 0 1 776 2025)">scales and weights.</text>
  <g id="" transform="matrix(1 0 0 1 1289 1933)">
   <path d="M 2.8418 1.86523 L 4.54102 3.57422 C 5.40039 4.44336 6.38672 4.38477 7.31445 3.35938 L 17.4902 -7.85156 C 17.7539 -7.76367 18.0273 -7.7832 18.3398 -7.8418 L 19.4043 -8.03711 L 20.0684 -7.36328 L 20.0293 -6.80664 C 19.9902 -6.30859 20.1172 -5.92773 20.6055 -5.44922 L 21.3672 -4.70703 C 21.8457 -4.22852 22.4609 -4.19922 22.9297 -4.66797 L 25.8398 -7.58789 C 26.3086 -8.05664 26.2891 -8.65234 25.8105 -9.13086 L 25.0391 -9.89258 C 24.5605 -10.3711 24.1895 -10.5273 23.7109 -10.4883 L 23.1348 -10.4395 L 22.4902 -11.0742 L 22.7344 -12.1973 C 22.8613 -12.7637 22.7051 -13.2031 22.1191 -13.7891 L 19.9219 -15.9766 C 16.582 -19.2969 12.1484 -19.2188 9.25781 -16.3281 C 8.83789 -15.918 8.80859 -15.3418 9.04297 -14.9512 C 9.27734 -14.5898 9.73633 -14.3555 10.3809 -14.5215 C 11.8457 -14.8633 13.3691 -14.9219 14.7949 -13.9844 L 14.209 -12.5293 C 14.0137 -12.0508 13.9844 -11.6504 14.1113 -11.2891 L 3.04688 -0.898438 C 2.06055 0.0195312 1.98242 0.996094 2.8418 1.86523 Z M 10.752 -15.957 C 13.1836 -17.7344 16.4746 -17.4316 18.7012 -15.2051 L 21.1328 -12.793 C 21.3672 -12.5586 21.4062 -12.373 21.3379 -12.0312 L 21.0156 -10.5469 L 22.5195 -9.0625 L 23.5059 -9.12109 C 23.7598 -9.13086 23.8379 -9.11133 24.0332 -8.91602 L 24.6094 -8.33984 L 22.168 -5.89844 L 21.5918 -6.47461 C 21.3965 -6.66992 21.3672 -6.74805 21.377 -7.01172 L 21.4453 -7.98828 L 19.9512 -9.47266 L 18.4277 -9.21875 C 18.1055 -9.15039 17.959 -9.17969 17.7148 -9.41406 L 15.7129 -11.416 C 15.459 -11.6504 15.4297 -11.8164 15.5859 -12.1875 L 16.4648 -14.2773 C 14.9023 -15.7324 12.8711 -16.3574 10.8398 -15.7617 C 10.6836 -15.7227 10.625 -15.8496 10.752 -15.957 Z M 5.27344 2.30469 L 4.10156 1.14258 C 3.63281 0.683594 3.74023 0.341797 4.14062 -0.0195312 L 14.9512 -10.1953 L 16.416 -8.71094 L 6.42578 2.27539 C 6.07422 2.67578 5.74219 2.77344 5.27344 2.30469 Z"/>
  </g>
  <text style="stroke:none;fill:black;font-family:-apple-system,&quot;SF Pro Display&quot;,&quot;SF Pro Text&quot;,Helvetica,sans-serif;font-weight:bold;" transform="matrix(1 0 0 1 1289 1953)">Exporting</text>
  <text style="stroke:none;fill:black;font-family:-apple-system,&quot;SF Pro Display&quot;,&quot;SF Pro Text&quot;,Helvetica,sans-serif;" transform="matrix(1 0 0 1 1289 1971)">Symbols should be outlined when exporting to ensure the</text>
  <text style="stroke:none;fill:black;font-family:-apple-system,&quot;SF Pro Display&quot;,&quot;SF Pro Text&quot;,Helvetica,sans-serif;" transform="matrix(1 0 0 1 1289 1989)">design is preserved when submitting to Xcode.</text>
  <text id="template-version" style="stroke:none;fill:black;font-family:-apple-system,&quot;SF Pro Display&quot;,&quot;SF Pro Text&quot;,Helvetica,sans-serif;text-anchor:end;" transform="matrix(1 0 0 1 3036 1933)">Template v.2.0</text>
  <text style="stroke:none;fill:black;font-family:-apple-system,&quot;SF Pro Display&quot;,&quot;SF Pro Text&quot;,Helvetica,sans-serif;text-anchor:end;" transform="matrix(1 0 0 1 3036 1951)">Requires Xcode 12 or greater</text>
  <text style="stroke:none;fill:black;font-family:-apple-system,&quot;SF Pro Display&quot;,&quot;SF Pro Text&quot;,Helvetica,sans-serif;text-anchor:end;" transform="matrix(1 0 0 1 3036 1969)">Generated from arrow.up.and.down.and.arrow.left.and.right</text>
  <text style="stroke:none;fill:black;font-family:-apple-system,&quot;SF Pro Display&quot;,&quot;SF Pro Text&quot;,Helvetica,sans-serif;text-anchor:end;" transform="matrix(1 0 0 1 3036 1987)">Typeset at 100 points</text>
  <text style="stroke:none;fill:black;font-family:-apple-system,&quot;SF Pro Display&quot;,&quot;SF Pro Text&quot;,Helvetica,sans-serif;" transform="matrix(1 0 0 1 263 726)">Small</text>
  <text style="stroke:none;fill:black;font-family:-apple-system,&quot;SF Pro Display&quot;,&quot;SF Pro Text&quot;,Helvetica,sans-serif;" transform="matrix(1 0 0 1 263 1156)">Medium</text>
  <text style="stroke:none;fill:black;font-family:-apple-system,&quot;SF Pro Display&quot;,&quot;SF Pro Text&quot;,Helvetica,sans-serif;" transform="matrix(1 0 0 1 263 1586)">Large</text>
 </g>
 <g id="Guides">
  <g id="H-reference" style="fill:#27AAE1;stroke:none;" transform="matrix(1 0 0 1 339 696)">
   <path d="M 0.976562 0 L 3.66211 0 L 12.9883 -24.4629 L 45.7031 -24.4629 L 55.0781 0 L 57.7148 0 L 30.6152 -70.459 L 28.125 -70.459 Z M 29.2969 -67.1387 L 29.3945 -67.1387 L 44.873 -26.709 L 13.8672 -26.709 Z"/>
  </g>
  <line id="Baseline-S" style="fill:none;stroke:#27AAE1;opacity:1;stroke-width:0.5;" x1="263" x2="3036" y1="696" y2="696"/>
  <line id="Capline-S" style="fill:none;stroke:#27AAE1;opacity:1;stroke-width:0.5;" x1="263" x2="3036" y1="625.541" y2="625.541"/>
  <g id="H-reference" style="fill:#27AAE1;stroke:none;" transform="matrix(1 0 0 1 339 1126)">
   <path d="M 0.976562 0 L 3.66211 0 L 12.9883 -24.4629 L 45.7031 -24.4629 L 55.0781 0 L 57.7148 0 L 30.6152 -70.459 L 28.125 -70.459 Z M 29.2969 -67.1387 L 29.3945 -67.1387 L 44.873 -26.709 L 13.8672 -26.709 Z"/>
  </g>
  <line id="Baseline-M" style="fill:none;stroke:#27AAE1;opacity:1;stroke-width:0.5;" x1="263" x2="3036" y1="1126" y2="1126"/>
  <line id="Capline-M" style="fill:none;stroke:#27AAE1;opacity:1;stroke-width:0.5;" x1="263" x2="3036" y1="1055.54" y2="1055.54"/>
  <g id="H-reference" style="fill:#27AAE1;stroke:none;" transform="matrix(1 0 0 1 339 1556)">
   <path d="M 0.976562 0 L 3.66211 0 L 12.9883 -24.4629 L 45.7031 -24.4629 L 55.0781 0 L 57.7148 0 L 30.6152 -70.459 L 28.125 -70.459 Z M 29.2969 -67.1387 L 29.3945 -67.1387 L 44.873 -26.709 L 13.8672 -26.709 Z"/>
  </g>
  <line id="Baseline-L" style="fill:none;stroke:#27AAE1;opacity:1;stroke-width:0.5;" x1="263" x2="3036" y1="1556" y2="1556"/>
  <line id="Capline-L" style="fill:none;stroke:#27AAE1;opacity:1;stroke-width:0.5;" x1="263" x2="3036" y1="1485.54" y2="1485.54"/>
  <line id="left-margin" style="fill:none;stroke:#00AEEF;stroke-width:0.5;opacity:1.0;" x1="1383.63" x2="1383.63" y1="1030.79" y2="1150.12"/>
  <line id="right-margin" style="fill:none;stroke:#00AEEF;stroke-width:0.5;opacity:1.0;" x1="1516.06" x2="1516.06" y1="1030.79" y2="1150.12"/>
 </g>
 <g id="Symbols">
  <g id="Black-L" transform="matrix(1 0 0 1 2843.19 1556)">
   <path d="M 36.8652 -10.8398 C 43.9453 -5.07812 50.8789 -9.22852 50.8789 -16.6016 L 50.8789 -24.707 L 79.6875 -24.707 L 79.6875 4.05273 L 71.3867 4.05273 C 64.209 4.05273 60.1074 11.084 65.5273 17.7734 L 82.4219 38.0371 C 86.4746 43.1152 93.457 43.5547 97.8027 38.2324 L 114.648 18.0664 C 120.459 10.9863 116.26 4.05273 108.887 4.05273 L 100.83 4.05273 L 100.83 -24.707 L 129.541 -24.707 L 129.541 -16.6016 C 129.541 -9.22852 136.475 -5.07812 143.555 -10.8398 L 163.721 -27.6855 C 169.043 -32.0312 168.604 -39.0137 163.525 -43.0664 L 143.262 -59.9609 C 136.621 -65.3809 129.541 -61.2793 129.541 -54.1016 L 129.541 -45.8984 L 100.83 -45.8984 L 100.83 -74.6094 L 108.887 -74.6094 C 116.26 -74.6094 120.459 -81.543 114.648 -88.623 L 97.7539 -108.838 C 93.4082 -114.16 86.4258 -113.623 82.373 -108.594 L 65.5273 -88.3301 C 60.1074 -81.6895 64.209 -74.6094 71.3867 -74.6094 L 79.6875 -74.6094 L 79.6875 -45.8984 L 50.8789 -45.8984 L 50.8789 -54.1016 C 50.8789 -61.2793 43.8477 -65.3809 37.1582 -59.9609 L 16.8945 -43.1152 C 11.8652 -39.0625 11.3281 -32.0801 16.6504 -27.7344 Z"/>
  </g>
  <g id="Heavy-L" transform="matrix(1 0 0 1 2547.92 1556)">
   <path d="M 36.4258 -11.2793 C 42.7734 -6.00586 49.2676 -9.86328 49.2676 -16.6504 L 49.2676 -26.0742 L 79.5898 -26.0742 L 79.5898 4.24805 L 70.0195 4.24805 C 63.3789 4.24805 59.5703 10.8887 64.5996 16.8945 L 81.7871 37.1582 C 85.498 41.6504 91.6992 41.9922 95.6055 37.3047 L 112.793 17.0898 C 118.066 10.791 114.209 4.24805 107.373 4.24805 L 97.998 4.24805 L 97.998 -26.0742 L 128.271 -26.0742 L 128.271 -16.6504 C 128.271 -9.86328 134.766 -6.00586 141.113 -11.2793 L 161.279 -28.4668 C 165.967 -32.373 165.625 -38.5742 161.133 -42.2852 L 140.869 -59.4727 C 134.863 -64.502 128.271 -60.6934 128.271 -54.0527 L 128.271 -44.5312 L 97.998 -44.5312 L 97.998 -74.8535 L 107.373 -74.8535 C 114.209 -74.8535 118.066 -81.3965 112.793 -87.6953 L 95.5566 -107.91 C 91.6504 -112.646 85.4492 -112.158 81.7871 -107.715 L 64.5996 -87.4512 C 59.5703 -81.4453 63.3789 -74.8535 70.0195 -74.8535 L 79.5898 -74.8535 L 79.5898 -44.5312 L 49.2676 -44.5312 L 49.2676 -54.0527 C 49.2676 -60.6934 42.6758 -64.502 36.6699 -59.4727 L 16.4551 -42.2852 C 11.9629 -38.623 11.5234 -32.4219 16.2109 -28.5156 Z"/>
  </g>
  <g id="Bold-L" transform="matrix(1 0 0 1 2252.82 1556)">
   <path d="M 35.9863 -11.7676 C 41.4551 -7.08008 47.5098 -10.5469 47.5098 -16.748 L 47.5098 -27.6367 L 79.541 -27.6367 L 79.541 4.49219 L 68.5059 4.49219 C 62.4512 4.49219 58.9844 10.6445 63.5254 15.918 L 81.1035 36.1328 C 84.4238 40.0391 89.7461 40.1855 93.1152 36.2305 L 110.693 16.0156 C 115.381 10.5469 111.914 4.49219 105.762 4.49219 L 94.873 4.49219 L 94.873 -27.6367 L 126.807 -27.6367 L 126.807 -16.748 C 126.807 -10.5469 132.861 -7.08008 138.33 -11.7676 L 158.545 -29.3457 C 162.549 -32.7148 162.305 -38.0859 158.447 -41.3574 L 138.184 -58.9355 C 132.959 -63.4766 126.807 -60.0098 126.807 -53.9551 L 126.807 -42.9688 L 94.873 -42.9688 L 94.873 -75.1465 L 105.762 -75.1465 C 111.914 -75.1465 115.381 -81.2012 110.693 -86.6699 L 93.1152 -106.885 C 89.6973 -110.889 84.3262 -110.596 81.1035 -106.738 L 63.5254 -86.5234 C 58.9844 -81.25 62.4512 -75.1465 68.5059 -75.1465 L 79.541 -75.1465 L 79.541 -42.9688 L 47.5098 -42.9688 L 47.5098 -53.9551 C 47.5098 -60.0098 41.3574 -63.4766 36.084 -58.9355 L 15.918 -41.4062 C 12.0605 -38.1836 11.7188 -32.8125 15.7715 -29.3945 Z"/>
  </g>
  <g id="Semibold-L" transform="matrix(1 0 0 1 1957.23 1556)">
   <path d="M 35.6445 -12.1094 C 40.5273 -7.8125 46.2402 -11.0352 46.2402 -16.748 L 46.2402 -28.6621 L 79.4922 -28.6621 L 79.4922 4.6875 L 67.4805 4.6875 C 61.8164 4.6875 58.5938 10.4492 62.793 15.2344 L 80.6641 35.4492 C 83.6426 38.916 88.4277 38.9648 91.4551 35.498 L 109.229 15.332 C 113.574 10.4004 110.352 4.6875 104.59 4.6875 L 92.7246 4.6875 L 92.7246 -28.6621 L 125.83 -28.6621 L 125.83 -16.748 C 125.83 -11.0352 131.592 -7.8125 136.475 -12.1094 L 156.641 -29.9316 C 160.156 -33.0078 160.059 -37.7441 156.592 -40.7227 L 136.377 -58.5938 C 131.592 -62.793 125.83 -59.5703 125.83 -53.9062 L 125.83 -41.8945 L 92.7246 -41.8945 L 92.7246 -75.3418 L 104.59 -75.3418 C 110.352 -75.3418 113.574 -81.0547 109.229 -85.9375 L 91.4062 -106.152 C 88.3301 -109.717 83.5938 -109.473 80.6152 -106.055 L 62.793 -85.8398 C 58.5938 -81.1035 61.8164 -75.3418 67.4805 -75.3418 L 79.4922 -75.3418 L 79.4922 -41.8945 L 46.2402 -41.8945 L 46.2402 -53.9062 C 46.2402 -59.5703 40.4785 -62.793 35.7422 -58.5938 L 15.5273 -40.7715 C 12.1094 -37.8418 11.8652 -33.0566 15.4297 -29.9805 Z"/>
  </g>
  <g id="Medium-L" transform="matrix(1 0 0 1 1661.35 1556)">
   <path d="M 35.3516 -12.3535 C 39.8438 -8.34961 45.3125 -11.377 45.3125 -16.7969 L 45.3125 -29.4922 L 79.4434 -29.4922 L 79.4434 4.78516 L 66.6504 4.78516 C 61.2793 4.78516 58.252 10.3027 62.2559 14.6973 L 80.2734 34.9121 C 83.1055 38.0859 87.4023 38.0371 90.1367 34.9121 L 108.154 14.7461 C 112.158 10.3027 109.131 4.78516 103.711 4.78516 L 91.0645 4.78516 L 91.0645 -29.4922 L 125.098 -29.4922 L 125.098 -16.7969 C 125.098 -11.377 130.566 -8.34961 135.059 -12.3535 L 155.176 -30.3711 C 158.35 -33.2031 158.35 -37.5 155.176 -40.2344 L 134.961 -58.3008 C 130.615 -62.2559 125.098 -59.2285 125.098 -53.8574 L 125.098 -41.1133 L 91.0645 -41.1133 L 91.0645 -75.4395 L 103.711 -75.4395 C 109.131 -75.4395 112.158 -80.957 108.154 -85.4004 L 90.0879 -105.615 C 87.3047 -108.789 83.0078 -108.643 80.2246 -105.518 L 62.2559 -85.3516 C 58.252 -80.957 61.2793 -75.4395 66.6504 -75.4395 L 79.4434 -75.4395 L 79.4434 -41.1133 L 45.3125 -41.1133 L 45.3125 -53.8574 C 45.3125 -59.2285 39.7949 -62.2559 35.4492 -58.3008 L 15.2344 -40.2832 C 12.1582 -37.5977 11.9629 -33.3008 15.1855 -30.4199 Z"/>
  </g>
  <g id="Regular-L" transform="matrix(1 0 0 1 1365.74 1556)">
   <path d="M 35.0586 -12.6953 C 38.916 -9.08203 44.0918 -11.8652 44.0918 -16.8457 L 44.0918 -30.5176 L 79.3945 -30.5176 L 79.3945 4.98047 L 65.625 4.98047 C 60.6445 4.98047 57.8613 10.1562 61.5234 14.0137 L 79.834 34.2285 C 82.3242 36.9629 86.084 36.8164 88.4766 34.1797 L 106.738 14.0137 C 110.352 10.1562 107.568 4.98047 102.588 4.98047 L 88.916 4.98047 L 88.916 -30.5176 L 124.121 -30.5176 L 124.121 -16.8457 C 124.121 -11.8652 129.297 -9.08203 133.154 -12.6953 L 153.32 -30.957 C 156.006 -33.4473 156.055 -37.1582 153.369 -39.6484 L 133.154 -57.959 C 129.297 -61.5723 124.121 -58.7891 124.121 -53.8086 L 124.121 -40.0879 L 88.916 -40.0879 L 88.916 -75.6348 L 102.588 -75.6348 C 107.568 -75.6348 110.352 -80.8105 106.738 -84.7168 L 88.4277 -104.932 C 85.9863 -107.617 82.2266 -107.568 79.7852 -104.883 L 61.5234 -84.7168 C 57.8613 -80.8105 60.6445 -75.6348 65.625 -75.6348 L 79.3945 -75.6348 L 79.3945 -40.0879 L 44.0918 -40.0879 L 44.0918 -53.8086 C 44.0918 -58.7891 38.916 -61.5723 35.0586 -57.959 L 14.8926 -39.6973 C 12.2559 -37.2559 12.1094 -33.5449 14.8438 -31.0059 Z"/>
  </g>
  <g id="Light-L" transform="matrix(1 0 0 1 1070.81 1556)">
   <path d="M 35.0586 -14.0625 C 38.4766 -11.0352 43.1152 -13.2324 43.1152 -17.5781 L 43.1152 -31.7383 L 78.7598 -31.7383 L 78.7598 4.3457 L 64.5996 4.3457 C 60.2539 4.3457 58.0566 8.98438 61.084 12.4023 L 78.3203 32.666 C 80.6152 35.3027 84.2285 35.2051 86.377 32.6172 L 103.613 12.4023 C 106.641 8.98438 104.443 4.3457 100.098 4.3457 L 85.9375 4.3457 L 85.9375 -31.7383 L 121.533 -31.7383 L 121.533 -17.5781 C 121.533 -13.2324 126.172 -11.0352 129.59 -14.0625 L 149.805 -31.2988 C 152.441 -33.5449 152.441 -37.1582 149.854 -39.3555 L 129.59 -56.5918 C 126.172 -59.6191 121.533 -57.4219 121.533 -53.0762 L 121.533 -38.916 L 85.9375 -38.916 L 85.9375 -75.0488 L 100.098 -75.0488 C 104.443 -75.0488 106.641 -79.6875 103.613 -83.1055 L 86.377 -103.369 C 84.1797 -105.957 80.5664 -105.957 78.3203 -103.369 L 61.084 -83.1055 C 58.0566 -79.6875 60.2539 -75.0488 64.5996 -75.0488 L 78.7598 -75.0488 L 78.7598 -38.916 L 43.1152 -38.916 L 43.1152 -53.0762 C 43.1152 -57.4219 38.4766 -59.6191 35.0586 -56.5918 L 14.8438 -39.4043 C 12.2559 -37.207 12.1582 -33.5938 14.7949 -31.2988 Z"/>
  </g>
  <g id="Thin-L" transform="matrix(1 0 0 1 776.466 1556)">
   <path d="M 35.0586 -15.8691 C 37.8906 -13.6719 41.7969 -15.0879 41.7969 -18.6035 L 41.7969 -33.3008 L 77.9785 -33.3008 L 77.9785 3.56445 L 63.2324 3.56445 C 59.7168 3.56445 58.3008 7.42188 60.5469 10.2539 L 76.3672 30.5664 C 78.3691 33.1055 81.7871 33.0078 83.6426 30.5664 L 99.4629 10.2539 C 101.66 7.42188 100.244 3.56445 96.7285 3.56445 L 82.0312 3.56445 L 82.0312 -33.3008 L 118.164 -33.3008 L 118.164 -18.6035 C 118.164 -15.0879 122.07 -13.6719 124.854 -15.8691 L 145.166 -31.6895 C 147.705 -33.6914 147.656 -37.1094 145.166 -38.9648 L 124.854 -54.7852 C 122.07 -57.0312 118.164 -55.6152 118.164 -52.0996 L 118.164 -37.3535 L 82.0312 -37.3535 L 82.0312 -74.3164 L 96.7285 -74.3164 C 100.244 -74.3164 101.66 -78.2227 99.4629 -81.0059 L 83.6426 -101.367 C 81.7871 -103.809 78.3691 -103.857 76.3672 -101.367 L 60.5469 -81.0059 C 58.3008 -78.2227 59.7168 -74.3164 63.2324 -74.3164 L 77.9785 -74.3164 L 77.9785 -37.3535 L 41.7969 -37.3535 L 41.7969 -52.0996 C 41.7969 -55.6152 37.8906 -57.0312 35.0586 -54.7852 L 14.7461 -39.0137 C 12.3047 -37.1582 12.207 -33.6914 14.7461 -31.6895 Z"/>
  </g>
  <g id="Ultralight-L" transform="matrix(1 0 0 1 480.951 1556)">
   <path d="M 35.0586 -16.7969 C 37.5977 -14.9902 41.1133 -16.0156 41.1133 -19.0918 L 41.1133 -34.1309 L 77.5879 -34.1309 L 77.5879 3.125 L 62.5488 3.125 C 59.4727 3.125 58.4473 6.64062 60.2539 9.13086 L 75.3418 29.541 C 77.1973 31.9824 80.5664 31.8848 82.2266 29.541 L 97.3145 9.13086 C 99.1699 6.64062 98.1445 3.125 95.0195 3.125 L 80.0293 3.125 L 80.0293 -34.1309 L 116.406 -34.1309 L 116.406 -19.0918 C 116.406 -16.0156 119.922 -14.9902 122.461 -16.7969 L 142.822 -31.9336 C 145.264 -33.7891 145.166 -37.1094 142.822 -38.8184 L 122.461 -53.9062 C 119.922 -55.7129 116.406 -54.6875 116.406 -51.6113 L 116.406 -36.5723 L 80.0293 -36.5723 L 80.0293 -73.9258 L 95.0195 -73.9258 C 98.1445 -73.9258 99.1699 -77.4414 97.3145 -79.9316 L 82.2266 -100.293 C 80.5664 -102.686 77.2461 -102.783 75.3418 -100.293 L 60.2539 -79.9316 C 58.4473 -77.4414 59.4727 -73.9258 62.5488 -73.9258 L 77.5879 -73.9258 L 77.5879 -36.5723 L 41.1133 -36.5723 L 41.1133 -51.6113 C 41.1133 -54.6875 37.5977 -55.7129 35.0586 -53.9062 L 14.6973 -38.7695 C 12.3047 -37.1094 12.2559 -33.7891 14.6973 -31.8848 Z"/>
  </g>
  <g id="Black-M" transform="matrix(1 0 0 1 2862.5 1126)">
   <path d="M 29.1504 -16.4551 C 35.4004 -11.6211 41.0156 -14.9902 41.0156 -21.1426 L 41.0156 -25.8789 L 61.5234 -25.8789 L 61.5234 -5.37109 L 56.5918 -5.37109 C 50.6836 -5.37109 47.4121 0.341797 51.8555 6.15234 L 63.916 21.9238 C 67.4316 26.5137 73.7793 27.0996 77.6367 22.168 L 89.6973 6.44531 C 94.5312 0.244141 91.1621 -5.37109 85.0098 -5.37109 L 80.3711 -5.37109 L 80.3711 -25.8789 L 100.781 -25.8789 L 100.781 -21.1426 C 100.781 -14.9902 106.396 -11.6211 112.646 -16.4551 L 128.32 -28.5156 C 133.252 -32.373 132.666 -38.7207 128.076 -42.2363 L 112.305 -54.3457 C 106.543 -58.7891 100.781 -55.4688 100.781 -49.5605 L 100.781 -44.7266 L 80.3711 -44.7266 L 80.3711 -65.1367 L 85.0098 -65.1367 C 91.1621 -65.1367 94.5312 -70.752 89.6973 -77.002 L 77.6367 -92.6758 C 73.7793 -97.6074 67.4316 -97.0703 63.916 -92.4316 L 51.8555 -76.6602 C 47.4121 -70.8984 50.6836 -65.1367 56.5918 -65.1367 L 61.5234 -65.1367 L 61.5234 -44.7266 L 41.0156 -44.7266 L 41.0156 -49.5605 C 41.0156 -55.4688 35.2539 -58.7891 29.4922 -54.3457 L 13.7207 -42.2363 C 9.13086 -38.7207 8.54492 -32.373 13.4766 -28.5156 Z"/>
  </g>
  <g id="Heavy-M" transform="matrix(1 0 0 1 2566.89 1126)">
   <path d="M 28.7109 -16.6016 C 34.2285 -12.1582 39.5508 -15.332 39.5508 -20.9961 L 39.5508 -27.0508 L 61.6211 -27.0508 L 61.6211 -4.98047 L 55.3711 -4.98047 C 49.9023 -4.98047 46.7773 0.439453 50.9277 5.61523 L 63.623 21.3379 C 66.7969 25.3906 72.3633 25.7812 75.7812 21.5332 L 88.4766 5.85938 C 92.9199 0.341797 89.7461 -4.98047 84.082 -4.98047 L 78.0273 -4.98047 L 78.0273 -27.0508 L 100.049 -27.0508 L 100.049 -20.9961 C 100.049 -15.332 105.371 -12.1582 110.889 -16.6016 L 126.562 -29.2969 C 130.811 -32.7148 130.42 -38.2812 126.367 -41.4551 L 110.645 -54.1504 C 105.469 -58.3008 100.049 -55.1758 100.049 -49.707 L 100.049 -43.5059 L 78.0273 -43.5059 L 78.0273 -65.5273 L 84.082 -65.5273 C 89.7461 -65.5273 92.9199 -70.8496 88.4766 -76.416 L 75.7812 -92.0898 C 72.3633 -96.3379 66.7969 -95.8984 63.623 -91.8945 L 50.9277 -76.1719 C 46.7773 -70.9473 49.9023 -65.5273 55.3711 -65.5273 L 61.6211 -65.5273 L 61.6211 -43.5059 L 39.5508 -43.5059 L 39.5508 -49.707 C 39.5508 -55.1758 34.1309 -58.3008 28.9551 -54.1504 L 13.2324 -41.4551 C 9.17969 -38.2812 8.74023 -32.7148 12.9883 -29.2969 Z"/>
  </g>
  <g id="Bold-M" transform="matrix(1 0 0 1 2271.42 1126)">
   <path d="M 28.1738 -16.748 C 32.9102 -12.7441 37.8906 -15.6738 37.8906 -20.8496 L 37.8906 -28.3691 L 61.6699 -28.3691 L 61.6699 -4.54102 L 54.0039 -4.54102 C 48.9746 -4.54102 46.0938 0.488281 49.9023 5.0293 L 63.3301 20.7031 C 66.1133 24.1211 70.8008 24.3164 73.6816 20.8008 L 87.1094 5.17578 C 91.1133 0.439453 88.1836 -4.54102 83.0078 -4.54102 L 75.4883 -4.54102 L 75.4883 -28.3691 L 99.2188 -28.3691 L 99.2188 -20.8496 C 99.2188 -15.6738 104.199 -12.7441 108.936 -16.748 L 124.561 -30.127 C 128.125 -33.0566 127.881 -37.7441 124.463 -40.5273 L 108.789 -53.9551 C 104.248 -57.7637 99.2188 -54.8828 99.2188 -49.8047 L 99.2188 -42.1875 L 75.4883 -42.1875 L 75.4883 -66.0156 L 83.0078 -66.0156 C 88.1836 -66.0156 91.1133 -70.9961 87.1094 -75.7324 L 73.6816 -91.4062 C 70.752 -94.9219 66.0645 -94.6289 63.2812 -91.2598 L 49.9023 -75.5859 C 46.0938 -71.0449 48.9746 -66.0156 54.0039 -66.0156 L 61.6699 -66.0156 L 61.6699 -42.1875 L 37.8906 -42.1875 L 37.8906 -49.8047 C 37.8906 -54.8828 32.8613 -57.7637 28.3203 -53.9551 L 12.6465 -40.5273 C 9.27734 -37.793 8.93555 -33.1055 12.5 -30.1758 Z"/>
  </g>
  <g id="Semibold-M" transform="matrix(1 0 0 1 1975.57 1126)">
   <path d="M 27.7832 -16.8457 C 32.0312 -13.1348 36.7676 -15.918 36.7676 -20.752 L 36.7676 -29.2969 L 61.7676 -29.2969 L 61.7676 -4.24805 L 53.0762 -4.24805 C 48.3398 -4.24805 45.6055 0.537109 49.1699 4.58984 L 63.0859 20.2637 C 65.625 23.1934 69.6777 23.3398 72.2656 20.3125 L 86.1816 4.6875 C 89.8438 0.488281 87.1094 -4.24805 82.2754 -4.24805 L 73.7305 -4.24805 L 73.7305 -29.2969 L 98.6328 -29.2969 L 98.6328 -20.752 C 98.6328 -15.918 103.369 -13.1348 107.617 -16.8457 L 123.193 -30.7129 C 126.221 -33.3496 126.123 -37.3535 123.145 -39.8926 L 107.52 -53.8086 C 103.418 -57.4219 98.6328 -54.6387 98.6328 -49.9023 L 98.6328 -41.2598 L 73.7305 -41.2598 L 73.7305 -66.3086 L 82.2754 -66.3086 C 87.1094 -66.3086 89.8438 -71.0449 86.1816 -75.293 L 72.2168 -90.918 C 69.6289 -93.9941 65.5762 -93.75 63.0859 -90.8203 L 49.1699 -75.1953 C 45.6055 -71.0938 48.3398 -66.3086 53.0762 -66.3086 L 61.7676 -66.3086 L 61.7676 -41.2598 L 36.7676 -41.2598 L 36.7676 -49.9023 C 36.7676 -54.6387 31.9824 -57.4219 27.9297 -53.8086 L 12.2559 -39.9414 C 9.375 -37.4512 9.08203 -33.3984 12.1582 -30.7617 Z"/>
  </g>
  <g id="Medium-M" transform="matrix(1 0 0 1 1679.49 1126)">
   <path d="M 27.5391 -16.8945 C 31.3477 -13.4277 35.8887 -16.1133 35.8887 -20.6543 L 35.8887 -29.9805 L 61.8164 -29.9805 L 61.8164 -4.05273 L 52.3926 -4.05273 C 47.8516 -4.05273 45.2148 0.537109 48.6328 4.29688 L 62.9395 19.9219 C 65.2832 22.5586 68.8477 22.5586 71.1914 19.9219 L 85.4492 4.3457 C 88.916 0.537109 86.2793 -4.05273 81.6895 -4.05273 L 72.3633 -4.05273 L 72.3633 -29.9805 L 98.1934 -29.9805 L 98.1934 -20.6543 C 98.1934 -16.1133 102.783 -13.4277 106.592 -16.8945 L 122.168 -31.1523 C 124.805 -33.5449 124.756 -37.1094 122.168 -39.4043 L 106.543 -53.7109 C 102.783 -57.1289 98.1934 -54.4922 98.1934 -49.9512 L 98.1934 -40.5762 L 72.3633 -40.5762 L 72.3633 -66.5527 L 81.6895 -66.5527 C 86.2793 -66.5527 88.916 -71.1426 85.4492 -74.9512 L 71.1426 -90.5762 C 68.75 -93.2129 65.1855 -93.0664 62.8906 -90.4785 L 48.6328 -74.8535 C 45.2148 -71.1426 47.8516 -66.5527 52.3926 -66.5527 L 61.8164 -66.5527 L 61.8164 -40.5762 L 35.8887 -40.5762 L 35.8887 -49.9512 C 35.8887 -54.4922 31.2988 -57.1289 27.5879 -53.7109 L 11.9629 -39.4531 C 9.42383 -37.1582 9.22852 -33.5938 11.9141 -31.2012 Z"/>
  </g>
  <g id="Regular-M" transform="matrix(1 0 0 1 1383.63 1126)">
   <path d="M 27.1484 -16.9922 C 30.4199 -13.8184 34.7656 -16.3086 34.7656 -20.5566 L 34.7656 -30.9082 L 61.8652 -30.9082 L 61.8652 -3.71094 L 51.4648 -3.71094 C 47.2656 -3.71094 44.7754 0.585938 47.9004 3.85742 L 62.6953 19.4824 C 64.7949 21.6797 67.7734 21.582 69.7754 19.4336 L 84.5215 3.85742 C 87.6953 0.585938 85.2051 -3.71094 80.957 -3.71094 L 70.6055 -3.71094 L 70.6055 -30.9082 L 97.6562 -30.9082 L 97.6562 -20.5566 C 97.6562 -16.3086 101.953 -13.8184 105.273 -16.9922 L 120.85 -31.7383 C 122.949 -33.7891 123.047 -36.7188 120.898 -38.8184 L 105.273 -53.6133 C 101.953 -56.7383 97.6562 -54.248 97.6562 -50.0488 L 97.6562 -39.6484 L 70.6055 -39.6484 L 70.6055 -66.8945 L 80.957 -66.8945 C 85.2051 -66.8945 87.6953 -71.1914 84.5215 -74.4629 L 69.7266 -90.0879 C 67.6758 -92.2852 64.6973 -92.1875 62.6465 -90.0391 L 47.9004 -74.4629 C 44.7754 -71.1914 47.2656 -66.8945 51.4648 -66.8945 L 61.8652 -66.8945 L 61.8652 -39.6484 L 34.7656 -39.6484 L 34.7656 -50.0488 C 34.7656 -54.248 30.4199 -56.7383 27.1484 -53.6133 L 11.5723 -38.8672 C 9.47266 -36.8164 9.375 -33.8867 11.5234 -31.7871 Z"/>
  </g>
  <g id="Light-M" transform="matrix(1 0 0 1 1088.53 1126)">
   <path d="M 27.1484 -18.2129 C 30.0293 -15.625 33.8379 -17.5781 33.8379 -21.2402 L 33.8379 -31.9824 L 61.3281 -31.9824 L 61.3281 -4.29688 L 50.5371 -4.29688 C 46.875 -4.29688 44.9219 -0.439453 47.5586 2.39258 L 61.377 18.0664 C 63.2324 20.166 66.1133 20.0684 67.8711 18.0664 L 81.6895 2.39258 C 84.3262 -0.439453 82.3242 -4.29688 78.7109 -4.29688 L 67.9199 -4.29688 L 67.9199 -31.9824 L 95.3613 -31.9824 L 95.3613 -21.2402 C 95.3613 -17.5781 99.1699 -15.625 102.051 -18.2129 L 117.676 -32.0312 C 119.727 -33.8867 119.775 -36.7188 117.725 -38.5254 L 102.051 -52.3926 C 99.1699 -55.0293 95.3613 -53.0273 95.3613 -49.3652 L 95.3613 -38.623 L 67.9199 -38.623 L 67.9199 -66.3574 L 78.7109 -66.3574 C 82.3242 -66.3574 84.3262 -70.2148 81.6895 -73.0469 L 67.8711 -88.7207 C 66.0156 -90.7715 63.1836 -90.7715 61.3281 -88.7207 L 47.5586 -73.0469 C 44.9219 -70.2148 46.875 -66.3574 50.5371 -66.3574 L 61.3281 -66.3574 L 61.3281 -38.623 L 33.8379 -38.623 L 33.8379 -49.3652 C 33.8379 -53.0273 30.0293 -55.0293 27.1484 -52.3926 L 11.5234 -38.5742 C 9.47266 -36.7676 9.375 -33.9355 11.4746 -32.0801 Z"/>
  </g>
  <g id="Thin-M" transform="matrix(1 0 0 1 793.947 1126)">
   <path d="M 27.1484 -19.873 C 29.4922 -17.9688 32.666 -19.2383 32.666 -22.1191 L 32.666 -33.3984 L 60.5957 -33.3984 L 60.5957 -4.98047 L 49.3164 -4.98047 C 46.3867 -4.98047 45.1172 -1.80664 47.0215 0.488281 L 59.5703 16.2109 C 61.2305 18.2129 63.916 18.1152 65.4297 16.2109 L 77.9785 0.488281 C 79.834 -1.80664 78.6133 -4.98047 75.6836 -4.98047 L 64.4043 -4.98047 L 64.4043 -33.3984 L 92.2852 -33.3984 L 92.2852 -22.1191 C 92.2852 -19.2383 95.459 -17.9688 97.7539 -19.873 L 113.525 -32.4219 C 115.479 -34.0332 115.43 -36.7188 113.525 -38.2324 L 97.7539 -50.7812 C 95.459 -52.6855 92.2852 -51.416 92.2852 -48.5352 L 92.2852 -37.207 L 64.4043 -37.207 L 64.4043 -65.6738 L 75.6836 -65.6738 C 78.6133 -65.6738 79.834 -68.8477 77.9785 -71.1914 L 65.3809 -86.9141 C 63.8672 -88.8184 61.1816 -88.8672 59.5703 -86.9141 L 47.0215 -71.1914 C 45.1172 -68.8477 46.3867 -65.6738 49.3164 -65.6738 L 60.5957 -65.6738 L 60.5957 -37.207 L 32.666 -37.207 L 32.666 -48.5352 C 32.666 -51.416 29.4922 -52.6855 27.1484 -50.7812 L 11.4258 -38.2324 C 9.52148 -36.7188 9.42383 -34.0332 11.4258 -32.4219 Z"/>
  </g>
  <g id="Ultralight-M" transform="matrix(1 0 0 1 498.334 1126)">
   <path d="M 27.1484 -20.7031 C 29.1992 -19.1406 32.0312 -20.0684 32.0312 -22.6074 L 32.0312 -34.1309 L 60.2051 -34.1309 L 60.2051 -5.37109 L 48.6816 -5.37109 C 46.1426 -5.37109 45.2148 -2.53906 46.7773 -0.488281 L 58.6914 15.2832 C 60.1562 17.1875 62.793 17.1387 64.1113 15.2832 L 76.0254 -0.488281 C 77.5879 -2.53906 76.6602 -5.37109 74.1699 -5.37109 L 62.5977 -5.37109 L 62.5977 -34.1309 L 90.7227 -34.1309 L 90.7227 -22.6074 C 90.7227 -20.0684 93.5547 -19.1406 95.6055 -20.7031 L 111.377 -32.6172 C 113.281 -34.082 113.232 -36.6699 111.377 -38.0371 L 95.6055 -49.9512 C 93.5547 -51.5137 90.7227 -50.5859 90.7227 -48.0469 L 90.7227 -36.5234 L 62.5977 -36.5234 L 62.5977 -65.332 L 74.1699 -65.332 C 76.6602 -65.332 77.5879 -68.1641 76.0254 -70.2148 L 64.1113 -85.9863 C 62.793 -87.8418 60.1562 -87.8906 58.6914 -85.9863 L 46.7773 -70.2148 C 45.2148 -68.1641 46.1426 -65.332 48.6816 -65.332 L 60.2051 -65.332 L 60.2051 -36.5234 L 32.0312 -36.5234 L 32.0312 -48.0469 C 32.0312 -50.5859 29.1992 -51.5137 27.1484 -49.9512 L 11.377 -38.0371 C 9.52148 -36.6699 9.47266 -34.082 11.377 -32.6172 Z"/>
  </g>
  <g id="Black-S" transform="matrix(1 0 0 1 2877.96 696)">
   <path d="M 22.8027 -20.5078 C 27.6367 -16.748 32.0312 -19.3848 32.0312 -24.1699 L 32.0312 -27.9785 L 48.1934 -27.9785 L 48.1934 -11.8164 L 44.2383 -11.8164 C 39.6484 -11.8164 37.0605 -7.32422 40.5273 -2.83203 L 50.0488 9.52148 C 52.7832 13.0859 57.7148 13.5254 60.6934 9.7168 L 70.2148 -2.58789 C 73.9746 -7.42188 71.3379 -11.8164 66.5527 -11.8164 L 62.793 -11.8164 L 62.793 -27.9785 L 78.9062 -27.9785 L 78.9062 -24.1699 C 78.9062 -19.3848 83.3008 -16.748 88.1348 -20.5078 L 100.439 -30.0293 C 104.248 -33.0078 103.809 -37.9395 100.244 -40.6738 L 87.8906 -50.1953 C 83.3984 -53.6621 78.9062 -51.0742 78.9062 -46.4844 L 78.9062 -42.5781 L 62.793 -42.5781 L 62.793 -58.6914 L 66.5527 -58.6914 C 71.3379 -58.6914 73.9746 -63.0859 70.2148 -67.9199 L 60.6934 -80.2246 C 57.7148 -84.0332 52.7832 -83.5938 50.0488 -80.0293 L 40.5273 -67.6758 C 37.0605 -63.1836 39.6484 -58.6914 44.2383 -58.6914 L 48.1934 -58.6914 L 48.1934 -42.5781 L 32.0312 -42.5781 L 32.0312 -46.4844 C 32.0312 -51.0742 27.5391 -53.6621 23.0469 -50.1953 L 10.6934 -40.6738 C 7.12891 -37.9395 6.68945 -33.0078 10.498 -30.0293 Z"/>
  </g>
  <g id="Heavy-S" transform="matrix(1 0 0 1 2581.9 696)">
   <path d="M 22.4609 -20.459 C 26.8066 -16.9434 31.0059 -19.4824 31.0059 -23.9746 L 31.0059 -28.7598 L 48.291 -28.7598 L 48.291 -11.4746 L 43.4082 -11.4746 C 39.0625 -11.4746 36.5723 -7.17773 39.8438 -3.07617 L 50 9.22852 C 52.4902 12.3535 56.7871 12.6953 59.4727 9.375 L 69.5801 -2.88086 C 73.0957 -7.22656 70.5566 -11.4746 66.0645 -11.4746 L 61.3281 -11.4746 L 61.3281 -28.7598 L 78.6133 -28.7598 L 78.6133 -23.9746 C 78.6133 -19.4824 82.8125 -16.9434 87.1582 -20.459 L 99.4141 -30.5664 C 102.734 -33.252 102.441 -37.5977 99.2676 -40.0879 L 86.9629 -50.1953 C 82.8613 -53.5156 78.6133 -50.9766 78.6133 -46.6309 L 78.6133 -41.7969 L 61.3281 -41.7969 L 61.3281 -59.082 L 66.0645 -59.082 C 70.5566 -59.082 73.0957 -63.2812 69.5801 -67.627 L 59.4727 -79.9316 C 56.7871 -83.252 52.4414 -82.8613 49.9512 -79.7363 L 39.8438 -67.4316 C 36.5723 -63.3301 39.0625 -59.082 43.4082 -59.082 L 48.291 -59.082 L 48.291 -41.7969 L 31.0059 -41.7969 L 31.0059 -46.6309 C 31.0059 -50.9766 26.709 -53.5156 22.6074 -50.1953 L 10.3027 -40.0879 C 7.17773 -37.5977 6.83594 -33.252 10.1562 -30.6152 Z"/>
  </g>
  <g id="Bold-S" transform="matrix(1 0 0 1 2285.93 696)">
   <path d="M 22.0215 -20.4102 C 25.8301 -17.1875 29.834 -19.5801 29.834 -23.7793 L 29.834 -29.6387 L 48.4863 -29.6387 L 48.4863 -11.0352 L 42.4805 -11.0352 C 38.4277 -11.0352 36.0352 -6.98242 39.1113 -3.36914 L 49.9023 8.93555 C 52.1484 11.5723 55.8105 11.7676 58.1055 8.98438 L 68.8965 -3.22266 C 72.168 -7.03125 69.7266 -11.0352 65.5273 -11.0352 L 59.7168 -11.0352 L 59.7168 -29.6387 L 78.2715 -29.6387 L 78.2715 -23.7793 C 78.2715 -19.5801 82.2754 -17.1875 86.084 -20.4102 L 98.291 -31.2012 C 101.074 -33.5449 100.879 -37.1582 98.2422 -39.4043 L 85.9375 -50.1953 C 82.3242 -53.3203 78.2715 -50.9277 78.2715 -46.8262 L 78.2715 -40.8691 L 59.7168 -40.8691 L 59.7168 -59.4727 L 65.5273 -59.4727 C 69.7266 -59.4727 72.168 -63.4766 68.8965 -67.2852 L 58.1055 -79.541 C 55.7617 -82.3242 52.0996 -82.0801 49.9023 -79.4434 L 39.1113 -67.1875 C 36.0352 -63.5254 38.4277 -59.4727 42.4805 -59.4727 L 48.4863 -59.4727 L 48.4863 -40.8691 L 29.834 -40.8691 L 29.834 -46.8262 C 29.834 -50.9277 25.7812 -53.3203 22.168 -50.1953 L 9.91211 -39.4531 C 7.27539 -37.207 6.98242 -33.5938 9.76562 -31.2012 Z"/>
  </g>
  <g id="Semibold-S" transform="matrix(1 0 0 1 1989.73 696)">
   <path d="M 21.7773 -20.4102 C 25.1953 -17.334 29.0527 -19.6777 29.0527 -23.6328 L 29.0527 -30.2734 L 48.584 -30.2734 L 48.584 -10.791 L 41.8945 -10.791 C 37.9883 -10.791 35.6445 -6.88477 38.623 -3.56445 L 49.8535 8.69141 C 51.9043 11.0352 55.127 11.084 57.1777 8.74023 L 68.4082 -3.4668 C 71.4844 -6.88477 69.1406 -10.791 65.1855 -10.791 L 58.5938 -10.791 L 58.5938 -30.2734 L 78.0273 -30.2734 L 78.0273 -23.6328 C 78.0273 -19.6777 81.8848 -17.334 85.3516 -20.4102 L 97.5586 -31.6406 C 99.9023 -33.7402 99.8535 -36.9141 97.5098 -38.9648 L 85.2539 -50.1953 C 81.9336 -53.1738 78.0273 -50.8301 78.0273 -46.9238 L 78.0273 -40.2832 L 58.5938 -40.2832 L 58.5938 -59.7656 L 65.1855 -59.7656 C 69.1406 -59.7656 71.4844 -63.623 68.4082 -67.0898 L 57.1777 -79.2969 C 55.0293 -81.6895 51.8555 -81.4941 49.8535 -79.1992 L 38.623 -66.9922 C 35.6445 -63.6719 37.9883 -59.7656 41.8945 -59.7656 L 48.584 -59.7656 L 48.584 -40.2832 L 29.0527 -40.2832 L 29.0527 -46.9238 C 29.0527 -50.8301 25.1465 -53.1738 21.8262 -50.1953 L 9.61914 -38.9648 C 7.32422 -36.9629 7.12891 -33.7891 9.52148 -31.6406 Z"/>
  </g>
  <g id="Medium-S" transform="matrix(1 0 0 1 1693.38 696)">
   <path d="M 21.582 -20.3613 C 24.707 -17.4316 28.4668 -19.7266 28.4668 -23.5352 L 28.4668 -30.7129 L 48.6328 -30.7129 L 48.6328 -10.5469 L 41.4062 -10.5469 C 37.6465 -10.5469 35.3516 -6.78711 38.2324 -3.71094 L 49.8535 8.54492 C 51.7578 10.5957 54.5898 10.5957 56.4941 8.54492 L 68.0664 -3.66211 C 70.9961 -6.78711 68.7012 -10.5469 64.8926 -10.5469 L 57.7148 -10.5469 L 57.7148 -30.7129 L 77.832 -30.7129 L 77.832 -23.5352 C 77.832 -19.7266 81.6406 -17.4316 84.7656 -20.3613 L 96.9727 -31.9336 C 99.0234 -33.8379 99.0234 -36.7188 96.9727 -38.623 L 84.7168 -50.1953 C 81.6406 -53.0762 77.832 -50.7812 77.832 -47.0215 L 77.832 -39.7949 L 57.7148 -39.7949 L 57.7148 -60.0098 L 64.8926 -60.0098 C 68.7012 -60.0098 70.9961 -63.7695 68.0664 -66.8945 L 56.4453 -79.1504 C 54.4922 -81.25 51.6602 -81.1035 49.8047 -79.0527 L 38.2324 -66.8457 C 35.3516 -63.7695 37.6465 -60.0098 41.4062 -60.0098 L 48.6328 -60.0098 L 48.6328 -39.7949 L 28.4668 -39.7949 L 28.4668 -47.0215 C 28.4668 -50.7812 24.707 -53.0762 21.6309 -50.1953 L 9.42383 -38.623 C 7.37305 -36.7676 7.22656 -33.9355 9.32617 -31.9824 Z"/>
  </g>
  <g id="Regular-S" transform="matrix(1 0 0 1 1397.18 696)">
   <path d="M 21.2891 -20.3613 C 24.0723 -17.627 27.6855 -19.8242 27.6855 -23.3887 L 27.6855 -31.2988 L 48.7305 -31.2988 L 48.7305 -10.3027 L 40.7715 -10.3027 C 37.207 -10.3027 35.0098 -6.64062 37.7441 -3.90625 L 49.8047 8.34961 C 51.5137 10.0586 53.9062 9.96094 55.5664 8.30078 L 67.5781 -3.90625 C 70.3125 -6.64062 68.1152 -10.3027 64.5508 -10.3027 L 56.6406 -10.3027 L 56.6406 -31.2988 L 77.6367 -31.2988 L 77.6367 -23.3887 C 77.6367 -19.8242 81.25 -17.627 84.0332 -20.3613 L 96.1914 -32.373 C 97.9004 -34.0332 97.998 -36.4258 96.2402 -38.1348 L 84.0332 -50.1953 C 81.25 -52.9297 77.6367 -50.7324 77.6367 -47.168 L 77.6367 -39.209 L 56.6406 -39.209 L 56.6406 -60.2539 L 64.5508 -60.2539 C 68.1152 -60.2539 70.3125 -63.916 67.5781 -66.6504 L 55.5176 -78.9062 C 53.8086 -80.6152 51.416 -80.5176 49.7559 -78.8574 L 37.7441 -66.6504 C 35.0098 -63.916 37.207 -60.2539 40.7715 -60.2539 L 48.7305 -60.2539 L 48.7305 -39.209 L 27.6855 -39.209 L 27.6855 -47.168 C 27.6855 -50.7324 24.0723 -52.9297 21.2891 -50.1953 L 9.13086 -38.1836 C 7.42188 -36.5234 7.32422 -34.1309 9.08203 -32.4219 Z"/>
  </g>
  <g id="Light-S" transform="matrix(1 0 0 1 1101.89 696)">
   <path d="M 21.2891 -21.4355 C 23.6816 -19.1895 26.9043 -20.8984 26.9043 -23.9746 L 26.9043 -32.2754 L 48.2422 -32.2754 L 48.2422 -10.791 L 39.9414 -10.791 C 36.8652 -10.791 35.1562 -7.56836 37.4023 -5.17578 L 48.584 7.08008 C 50.1465 8.74023 52.4414 8.69141 53.9062 7.03125 L 65.0879 -5.17578 C 67.334 -7.56836 65.625 -10.791 62.5488 -10.791 L 54.248 -10.791 L 54.248 -32.2754 L 75.5859 -32.2754 L 75.5859 -23.9746 C 75.5859 -20.8984 78.7598 -19.1895 81.2012 -21.4355 L 93.4082 -32.6172 C 95.0684 -34.1309 95.1172 -36.4258 93.457 -37.9395 L 81.2012 -49.1211 C 78.7598 -51.416 75.5859 -49.6582 75.5859 -46.582 L 75.5859 -38.2812 L 54.248 -38.2812 L 54.248 -59.8145 L 62.5488 -59.8145 C 65.625 -59.8145 67.334 -62.9883 65.0879 -65.4297 L 53.9062 -77.6855 C 52.3438 -79.3457 50.0977 -79.2969 48.584 -77.6367 L 37.4023 -65.4297 C 35.1562 -62.9883 36.8652 -59.8145 39.9414 -59.8145 L 48.2422 -59.8145 L 48.2422 -38.2812 L 26.9043 -38.2812 L 26.9043 -46.582 C 26.9043 -49.6582 23.6816 -51.416 21.2891 -49.1211 L 9.08203 -37.9395 C 7.42188 -36.4746 7.37305 -34.1797 9.0332 -32.666 Z"/>
  </g>
  <g id="Thin-S" transform="matrix(1 0 0 1 807.081 696)">
   <path d="M 21.2891 -22.8516 C 23.1934 -21.2402 25.8301 -22.3633 25.8301 -24.8047 L 25.8301 -33.5449 L 47.6074 -33.5449 L 47.6074 -11.4258 L 38.8672 -11.4258 C 36.4258 -11.4258 35.3027 -8.78906 36.9629 -6.88477 L 47.0215 5.41992 C 48.3398 7.03125 50.4883 6.93359 51.709 5.41992 L 61.7676 -6.88477 C 63.4277 -8.78906 62.3047 -11.4258 59.8633 -11.4258 L 51.123 -11.4258 L 51.123 -33.5449 L 72.9004 -33.5449 L 72.9004 -24.8047 C 72.9004 -22.3633 75.4883 -21.2402 77.3926 -22.8516 L 89.6973 -32.959 C 91.2598 -34.2285 91.2598 -36.377 89.7461 -37.6465 L 77.3926 -47.7051 C 75.4883 -49.3652 72.9004 -48.2422 72.9004 -45.8008 L 72.9004 -37.0605 L 51.123 -37.0605 L 51.123 -59.2285 L 59.8633 -59.2285 C 62.3047 -59.2285 63.4277 -61.8164 61.7676 -63.7695 L 51.709 -76.0742 C 50.4395 -77.5879 48.3398 -77.6367 47.0215 -76.0742 L 36.9629 -63.7695 C 35.3027 -61.8164 36.4258 -59.2285 38.8672 -59.2285 L 47.6074 -59.2285 L 47.6074 -37.0605 L 25.8301 -37.0605 L 25.8301 -45.8008 C 25.8301 -48.2422 23.1934 -49.3652 21.2891 -47.7051 L 8.98438 -37.6465 C 7.4707 -36.4258 7.37305 -34.2773 8.98438 -32.959 Z"/>
  </g>
  <g id="Ultralight-S" transform="matrix(1 0 0 1 511.322 696)">
   <path d="M 21.2891 -23.6328 C 22.9492 -22.3145 25.2441 -23.0957 25.2441 -25.1953 L 25.2441 -34.1797 L 47.2656 -34.1797 L 47.2656 -11.7188 L 38.3301 -11.7188 C 36.2305 -11.7188 35.4004 -9.42383 36.7188 -7.76367 L 46.2402 4.58984 C 47.4121 6.10352 49.5117 6.05469 50.5859 4.58984 L 60.1074 -7.76367 C 61.377 -9.42383 60.5957 -11.7188 58.4961 -11.7188 L 49.5117 -11.7188 L 49.5117 -34.1797 L 71.4844 -34.1797 L 71.4844 -25.1953 C 71.4844 -23.0957 73.8281 -22.3145 75.4883 -23.6328 L 87.8418 -33.1055 C 89.3555 -34.3262 89.3066 -36.377 87.8418 -37.5 L 75.4883 -46.9727 C 73.8281 -48.291 71.4844 -47.4609 71.4844 -45.4102 L 71.4844 -36.4258 L 49.5117 -36.4258 L 49.5117 -58.8867 L 58.4961 -58.8867 C 60.5957 -58.8867 61.377 -61.2305 60.1074 -62.8906 L 50.5859 -75.2441 C 49.4629 -76.709 47.4121 -76.7578 46.2402 -75.2441 L 36.7188 -62.8906 C 35.4004 -61.2305 36.2305 -58.8867 38.3301 -58.8867 L 47.2656 -58.8867 L 47.2656 -36.4258 L 25.2441 -36.4258 L 25.2441 -45.4102 C 25.2441 -47.4609 22.9492 -48.291 21.2891 -46.9727 L 8.93555 -37.5 C 7.4707 -36.377 7.42188 -34.3262 8.93555 -33.1055 Z"/>
  </g>
 </g>
</svg>
