<?xml version="1.0" encoding="UTF-8"?>
<!--Generator: Apple Native CoreSVG 129-->
<!DOCTYPE svg
PUBLIC "-//W3C//DTD SVG 1.1//EN"
       "http://www.w3.org/Graphics/SVG/1.1/DTD/svg11.dtd">
<svg version="1.1" xmlns="http://www.w3.org/2000/svg" xmlns:xlink="http://www.w3.org/1999/xlink" width="3300" height="2200">
 <!--glyph: "uni1002B3.medium", point size: 100.000000, font version: "Version 16.0d9e1", template writer version: "8"-->
 <g id="Notes">
  <rect height="2200" id="artboard" style="fill:white;opacity:1" width="3300" x="0" y="0"/>
  <line id="" style="fill:none;stroke:black;opacity:1;stroke-width:0.5;" x1="263" x2="3036" y1="292" y2="292"/>
  <text style="stroke:none;fill:black;font-family:-apple-system,&quot;SF Pro Display&quot;,&quot;SF Pro Text&quot;,Helvetica,sans-serif;font-weight:bold;" transform="matrix(1 0 0 1 263 322)">Weight/Scale Variations</text>
  <text style="stroke:none;fill:black;font-family:-apple-system,&quot;SF Pro Display&quot;,&quot;SF Pro Text&quot;,Helvetica,sans-serif;text-anchor:middle;" transform="matrix(1 0 0 1 559.711 322)">Ultralight</text>
  <text style="stroke:none;fill:black;font-family:-apple-system,&quot;SF Pro Display&quot;,&quot;SF Pro Text&quot;,Helvetica,sans-serif;text-anchor:middle;" transform="matrix(1 0 0 1 856.422 322)">Thin</text>
  <text style="stroke:none;fill:black;font-family:-apple-system,&quot;SF Pro Display&quot;,&quot;SF Pro Text&quot;,Helvetica,sans-serif;text-anchor:middle;" transform="matrix(1 0 0 1 1153.13 322)">Light</text>
  <text style="stroke:none;fill:black;font-family:-apple-system,&quot;SF Pro Display&quot;,&quot;SF Pro Text&quot;,Helvetica,sans-serif;text-anchor:middle;" transform="matrix(1 0 0 1 1449.84 322)">Regular</text>
  <text style="stroke:none;fill:black;font-family:-apple-system,&quot;SF Pro Display&quot;,&quot;SF Pro Text&quot;,Helvetica,sans-serif;text-anchor:middle;" transform="matrix(1 0 0 1 1746.56 322)">Medium</text>
  <text style="stroke:none;fill:black;font-family:-apple-system,&quot;SF Pro Display&quot;,&quot;SF Pro Text&quot;,Helvetica,sans-serif;text-anchor:middle;" transform="matrix(1 0 0 1 2043.27 322)">Semibold</text>
  <text style="stroke:none;fill:black;font-family:-apple-system,&quot;SF Pro Display&quot;,&quot;SF Pro Text&quot;,Helvetica,sans-serif;text-anchor:middle;" transform="matrix(1 0 0 1 2339.98 322)">Bold</text>
  <text style="stroke:none;fill:black;font-family:-apple-system,&quot;SF Pro Display&quot;,&quot;SF Pro Text&quot;,Helvetica,sans-serif;text-anchor:middle;" transform="matrix(1 0 0 1 2636.69 322)">Heavy</text>
  <text style="stroke:none;fill:black;font-family:-apple-system,&quot;SF Pro Display&quot;,&quot;SF Pro Text&quot;,Helvetica,sans-serif;text-anchor:middle;" transform="matrix(1 0 0 1 2933.4 322)">Black</text>
  <line id="" style="fill:none;stroke:black;opacity:1;stroke-width:0.5;" x1="263" x2="3036" y1="1903" y2="1903"/>
  <g id="" transform="matrix(1 0 0 1 263 1933)">
   <path d="M 9.24805 0.830078 C 13.5547 0.830078 17.1387 -2.74414 17.1387 -7.05078 C 17.1387 -11.3574 13.5449 -14.9316 9.23828 -14.9316 C 4.94141 -14.9316 1.36719 -11.3574 1.36719 -7.05078 C 1.36719 -2.74414 4.95117 0.830078 9.24805 0.830078 Z M 9.24805 -0.654297 C 5.70312 -0.654297 2.87109 -3.49609 2.87109 -7.05078 C 2.87109 -10.6055 5.69336 -13.4473 9.23828 -13.4473 C 12.793 -13.4473 15.6348 -10.6055 15.6445 -7.05078 C 15.6543 -3.49609 12.8027 -0.654297 9.24805 -0.654297 Z M 9.22852 -3.62305 C 9.69727 -3.62305 9.9707 -3.93555 9.9707 -4.45312 L 9.9707 -6.31836 L 12.002 -6.31836 C 12.5 -6.31836 12.832 -6.57227 12.832 -7.04102 C 12.832 -7.51953 12.5195 -7.7832 12.002 -7.7832 L 9.9707 -7.7832 L 9.9707 -9.81445 C 9.9707 -10.332 9.69727 -10.6543 9.22852 -10.6543 C 8.75977 -10.6543 8.50586 -10.3125 8.50586 -9.81445 L 8.50586 -7.7832 L 6.49414 -7.7832 C 5.97656 -7.7832 5.64453 -7.51953 5.64453 -7.04102 C 5.64453 -6.57227 5.99609 -6.31836 6.49414 -6.31836 L 8.50586 -6.31836 L 8.50586 -4.45312 C 8.50586 -3.95508 8.75977 -3.62305 9.22852 -3.62305 Z"/>
  </g>
  <g id="" transform="matrix(1 0 0 1 281.506 1933)">
   <path d="M 11.709 2.91016 C 17.1582 2.91016 21.6699 -1.61133 21.6699 -7.05078 C 21.6699 -12.5 17.1484 -17.0117 11.6992 -17.0117 C 6.25977 -17.0117 1.74805 -12.5 1.74805 -7.05078 C 1.74805 -1.61133 6.26953 2.91016 11.709 2.91016 Z M 11.709 1.25 C 7.09961 1.25 3.41797 -2.44141 3.41797 -7.05078 C 3.41797 -11.6602 7.08984 -15.3516 11.6992 -15.3516 C 16.3086 -15.3516 20 -11.6602 20.0098 -7.05078 C 20.0195 -2.44141 16.3184 1.25 11.709 1.25 Z M 11.6797 -2.66602 C 12.207 -2.66602 12.5098 -3.01758 12.5098 -3.59375 L 12.5098 -6.23047 L 15.3223 -6.23047 C 15.8691 -6.23047 16.25 -6.51367 16.25 -7.03125 C 16.25 -7.55859 15.8887 -7.86133 15.3223 -7.86133 L 12.5098 -7.86133 L 12.5098 -10.6836 C 12.5098 -11.25 12.207 -11.6113 11.6797 -11.6113 C 11.1621 -11.6113 10.8789 -11.2305 10.8789 -10.6836 L 10.8789 -7.86133 L 8.07617 -7.86133 C 7.50977 -7.86133 7.13867 -7.55859 7.13867 -7.03125 C 7.13867 -6.51367 7.5293 -6.23047 8.07617 -6.23047 L 10.8789 -6.23047 L 10.8789 -3.59375 C 10.8789 -3.03711 11.1621 -2.66602 11.6797 -2.66602 Z"/>
  </g>
  <g id="" transform="matrix(1 0 0 1 304.924 1933)">
   <path d="M 14.9707 5.66406 C 21.9336 5.66406 27.6953 -0.0976562 27.6953 -7.05078 C 27.6953 -14.0137 21.9238 -19.7754 14.9609 -19.7754 C 8.00781 -19.7754 2.25586 -14.0137 2.25586 -7.05078 C 2.25586 -0.0976562 8.01758 5.66406 14.9707 5.66406 Z M 14.9707 3.84766 C 8.93555 3.84766 4.08203 -1.01562 4.08203 -7.05078 C 4.08203 -13.0957 8.92578 -17.9492 14.9609 -17.9492 C 21.0059 -17.9492 25.8594 -13.0957 25.8691 -7.05078 C 25.8789 -1.01562 21.0156 3.84766 14.9707 3.84766 Z M 14.9414 -1.38672 C 15.5176 -1.38672 15.8594 -1.77734 15.8594 -2.38281 L 15.8594 -6.13281 L 19.7754 -6.13281 C 20.3711 -6.13281 20.7812 -6.46484 20.7812 -7.02148 C 20.7812 -7.59766 20.3906 -7.93945 19.7754 -7.93945 L 15.8594 -7.93945 L 15.8594 -11.8652 C 15.8594 -12.4805 15.5176 -12.8711 14.9414 -12.8711 C 14.375 -12.8711 14.0527 -12.4609 14.0527 -11.8652 L 14.0527 -7.93945 L 10.1465 -7.93945 C 9.53125 -7.93945 9.13086 -7.59766 9.13086 -7.02148 C 9.13086 -6.46484 9.55078 -6.13281 10.1465 -6.13281 L 14.0527 -6.13281 L 14.0527 -2.38281 C 14.0527 -1.79688 14.375 -1.38672 14.9414 -1.38672 Z"/>
  </g>
  <text style="stroke:none;fill:black;font-family:-apple-system,&quot;SF Pro Display&quot;,&quot;SF Pro Text&quot;,Helvetica,sans-serif;font-weight:bold;" transform="matrix(1 0 0 1 263 1953)">Design Variations</text>
  <text style="stroke:none;fill:black;font-family:-apple-system,&quot;SF Pro Display&quot;,&quot;SF Pro Text&quot;,Helvetica,sans-serif;" transform="matrix(1 0 0 1 263 1971)">Symbols are supported in up to nine weights and three scales.</text>
  <text style="stroke:none;fill:black;font-family:-apple-system,&quot;SF Pro Display&quot;,&quot;SF Pro Text&quot;,Helvetica,sans-serif;" transform="matrix(1 0 0 1 263 1989)">For optimal layout with text and other symbols, vertically align</text>
  <text style="stroke:none;fill:black;font-family:-apple-system,&quot;SF Pro Display&quot;,&quot;SF Pro Text&quot;,Helvetica,sans-serif;" transform="matrix(1 0 0 1 263 2007)">symbols with the adjacent text.</text>
  <line id="" style="fill:none;stroke:#00AEEF;stroke-width:0.5;opacity:1.0;" x1="776" x2="776" y1="1919" y2="1933"/>
  <g id="" transform="matrix(1 0 0 1 776 1933)">
   <path d="M 3.31055 0.126953 C 3.82812 0.126953 4.08203 -0.0683594 4.26758 -0.605469 L 5.52734 -4.0625 L 11.2891 -4.0625 L 12.5488 -0.605469 C 12.7344 -0.0683594 12.9883 0.126953 13.4961 0.126953 C 14.0137 0.126953 14.3457 -0.185547 14.3457 -0.673828 C 14.3457 -0.839844 14.3164 -0.986328 14.2383 -1.20117 L 9.6582 -13.3887 C 9.43359 -13.9941 9.0332 -14.2871 8.4082 -14.2871 C 7.80273 -14.2871 7.39258 -13.9941 7.17773 -13.3984 L 2.59766 -1.19141 C 2.51953 -0.976562 2.49023 -0.830078 2.49023 -0.664062 C 2.49023 -0.175781 2.80273 0.126953 3.31055 0.126953 Z M 6.00586 -5.53711 L 8.37891 -12.1094 L 8.42773 -12.1094 L 10.8008 -5.53711 Z"/>
  </g>
  <line id="" style="fill:none;stroke:#00AEEF;stroke-width:0.5;opacity:1.0;" x1="792.836" x2="792.836" y1="1919" y2="1933"/>
  <text style="stroke:none;fill:black;font-family:-apple-system,&quot;SF Pro Display&quot;,&quot;SF Pro Text&quot;,Helvetica,sans-serif;font-weight:bold;" transform="matrix(1 0 0 1 776 1953)">Margins</text>
  <text style="stroke:none;fill:black;font-family:-apple-system,&quot;SF Pro Display&quot;,&quot;SF Pro Text&quot;,Helvetica,sans-serif;" transform="matrix(1 0 0 1 776 1971)">Leading and trailing margins on the left and right side of each symbol</text>
  <text style="stroke:none;fill:black;font-family:-apple-system,&quot;SF Pro Display&quot;,&quot;SF Pro Text&quot;,Helvetica,sans-serif;" transform="matrix(1 0 0 1 776 1989)">can be adjusted by modifying the x-location of the margin guidelines.</text>
  <text style="stroke:none;fill:black;font-family:-apple-system,&quot;SF Pro Display&quot;,&quot;SF Pro Text&quot;,Helvetica,sans-serif;" transform="matrix(1 0 0 1 776 2007)">Modifications are automatically applied proportionally to all</text>
  <text style="stroke:none;fill:black;font-family:-apple-system,&quot;SF Pro Display&quot;,&quot;SF Pro Text&quot;,Helvetica,sans-serif;" transform="matrix(1 0 0 1 776 2025)">scales and weights.</text>
  <g id="" transform="matrix(1 0 0 1 1289 1933)">
   <path d="M 2.8418 1.86523 L 4.54102 3.57422 C 5.40039 4.44336 6.38672 4.38477 7.31445 3.35938 L 17.4902 -7.85156 C 17.7539 -7.76367 18.0273 -7.7832 18.3398 -7.8418 L 19.4043 -8.03711 L 20.0684 -7.36328 L 20.0293 -6.80664 C 19.9902 -6.30859 20.1172 -5.92773 20.6055 -5.44922 L 21.3672 -4.70703 C 21.8457 -4.22852 22.4609 -4.19922 22.9297 -4.66797 L 25.8398 -7.58789 C 26.3086 -8.05664 26.2891 -8.65234 25.8105 -9.13086 L 25.0391 -9.89258 C 24.5605 -10.3711 24.1895 -10.5273 23.7109 -10.4883 L 23.1348 -10.4395 L 22.4902 -11.0742 L 22.7344 -12.1973 C 22.8613 -12.7637 22.7051 -13.2031 22.1191 -13.7891 L 19.9219 -15.9766 C 16.582 -19.2969 12.1484 -19.2188 9.25781 -16.3281 C 8.83789 -15.918 8.80859 -15.3418 9.04297 -14.9512 C 9.27734 -14.5898 9.73633 -14.3555 10.3809 -14.5215 C 11.8457 -14.8633 13.3691 -14.9219 14.7949 -13.9844 L 14.209 -12.5293 C 14.0137 -12.0508 13.9844 -11.6504 14.1113 -11.2891 L 3.04688 -0.898438 C 2.06055 0.0195312 1.98242 0.996094 2.8418 1.86523 Z M 10.752 -15.957 C 13.1836 -17.7344 16.4746 -17.4316 18.7012 -15.2051 L 21.1328 -12.793 C 21.3672 -12.5586 21.4062 -12.373 21.3379 -12.0312 L 21.0156 -10.5469 L 22.5195 -9.0625 L 23.5059 -9.12109 C 23.7598 -9.13086 23.8379 -9.11133 24.0332 -8.91602 L 24.6094 -8.33984 L 22.168 -5.89844 L 21.5918 -6.47461 C 21.3965 -6.66992 21.3672 -6.74805 21.377 -7.01172 L 21.4453 -7.98828 L 19.9512 -9.47266 L 18.4277 -9.21875 C 18.1055 -9.15039 17.959 -9.17969 17.7148 -9.41406 L 15.7129 -11.416 C 15.459 -11.6504 15.4297 -11.8164 15.5859 -12.1875 L 16.4648 -14.2773 C 14.9023 -15.7324 12.8711 -16.3574 10.8398 -15.7617 C 10.6836 -15.7227 10.625 -15.8496 10.752 -15.957 Z M 5.27344 2.30469 L 4.10156 1.14258 C 3.63281 0.683594 3.74023 0.341797 4.14062 -0.0195312 L 14.9512 -10.1953 L 16.416 -8.71094 L 6.42578 2.27539 C 6.07422 2.67578 5.74219 2.77344 5.27344 2.30469 Z"/>
  </g>
  <text style="stroke:none;fill:black;font-family:-apple-system,&quot;SF Pro Display&quot;,&quot;SF Pro Text&quot;,Helvetica,sans-serif;font-weight:bold;" transform="matrix(1 0 0 1 1289 1953)">Exporting</text>
  <text style="stroke:none;fill:black;font-family:-apple-system,&quot;SF Pro Display&quot;,&quot;SF Pro Text&quot;,Helvetica,sans-serif;" transform="matrix(1 0 0 1 1289 1971)">Symbols should be outlined when exporting to ensure the</text>
  <text style="stroke:none;fill:black;font-family:-apple-system,&quot;SF Pro Display&quot;,&quot;SF Pro Text&quot;,Helvetica,sans-serif;" transform="matrix(1 0 0 1 1289 1989)">design is preserved when submitting to Xcode.</text>
  <text id="template-version" style="stroke:none;fill:black;font-family:-apple-system,&quot;SF Pro Display&quot;,&quot;SF Pro Text&quot;,Helvetica,sans-serif;text-anchor:end;" transform="matrix(1 0 0 1 3036 1933)">Template v.2.0</text>
  <text style="stroke:none;fill:black;font-family:-apple-system,&quot;SF Pro Display&quot;,&quot;SF Pro Text&quot;,Helvetica,sans-serif;text-anchor:end;" transform="matrix(1 0 0 1 3036 1951)">Requires Xcode 12 or greater</text>
  <text style="stroke:none;fill:black;font-family:-apple-system,&quot;SF Pro Display&quot;,&quot;SF Pro Text&quot;,Helvetica,sans-serif;text-anchor:end;" transform="matrix(1 0 0 1 3036 1969)">Generated from mic.slash.fill</text>
  <text style="stroke:none;fill:black;font-family:-apple-system,&quot;SF Pro Display&quot;,&quot;SF Pro Text&quot;,Helvetica,sans-serif;text-anchor:end;" transform="matrix(1 0 0 1 3036 1987)">Typeset at 100 points</text>
  <text style="stroke:none;fill:black;font-family:-apple-system,&quot;SF Pro Display&quot;,&quot;SF Pro Text&quot;,Helvetica,sans-serif;" transform="matrix(1 0 0 1 263 726)">Small</text>
  <text style="stroke:none;fill:black;font-family:-apple-system,&quot;SF Pro Display&quot;,&quot;SF Pro Text&quot;,Helvetica,sans-serif;" transform="matrix(1 0 0 1 263 1156)">Medium</text>
  <text style="stroke:none;fill:black;font-family:-apple-system,&quot;SF Pro Display&quot;,&quot;SF Pro Text&quot;,Helvetica,sans-serif;" transform="matrix(1 0 0 1 263 1586)">Large</text>
 </g>
 <g id="Guides">
  <g id="H-reference" style="fill:#27AAE1;stroke:none;" transform="matrix(1 0 0 1 339 696)">
   <path d="M 0.976562 0 L 3.66211 0 L 12.9883 -24.4629 L 45.7031 -24.4629 L 55.0781 0 L 57.7148 0 L 30.6152 -70.459 L 28.125 -70.459 Z M 29.2969 -67.1387 L 29.3945 -67.1387 L 44.873 -26.709 L 13.8672 -26.709 Z"/>
  </g>
  <line id="Baseline-S" style="fill:none;stroke:#27AAE1;opacity:1;stroke-width:0.5;" x1="263" x2="3036" y1="696" y2="696"/>
  <line id="Capline-S" style="fill:none;stroke:#27AAE1;opacity:1;stroke-width:0.5;" x1="263" x2="3036" y1="625.541" y2="625.541"/>
  <g id="H-reference" style="fill:#27AAE1;stroke:none;" transform="matrix(1 0 0 1 339 1126)">
   <path d="M 0.976562 0 L 3.66211 0 L 12.9883 -24.4629 L 45.7031 -24.4629 L 55.0781 0 L 57.7148 0 L 30.6152 -70.459 L 28.125 -70.459 Z M 29.2969 -67.1387 L 29.3945 -67.1387 L 44.873 -26.709 L 13.8672 -26.709 Z"/>
  </g>
  <line id="Baseline-M" style="fill:none;stroke:#27AAE1;opacity:1;stroke-width:0.5;" x1="263" x2="3036" y1="1126" y2="1126"/>
  <line id="Capline-M" style="fill:none;stroke:#27AAE1;opacity:1;stroke-width:0.5;" x1="263" x2="3036" y1="1055.54" y2="1055.54"/>
  <g id="H-reference" style="fill:#27AAE1;stroke:none;" transform="matrix(1 0 0 1 339 1556)">
   <path d="M 0.976562 0 L 3.66211 0 L 12.9883 -24.4629 L 45.7031 -24.4629 L 55.0781 0 L 57.7148 0 L 30.6152 -70.459 L 28.125 -70.459 Z M 29.2969 -67.1387 L 29.3945 -67.1387 L 44.873 -26.709 L 13.8672 -26.709 Z"/>
  </g>
  <line id="Baseline-L" style="fill:none;stroke:#27AAE1;opacity:1;stroke-width:0.5;" x1="263" x2="3036" y1="1556" y2="1556"/>
  <line id="Capline-L" style="fill:none;stroke:#27AAE1;opacity:1;stroke-width:0.5;" x1="263" x2="3036" y1="1485.54" y2="1485.54"/>
  <line id="left-margin" style="fill:none;stroke:#00AEEF;stroke-width:0.5;opacity:1.0;" x1="1400.09" x2="1400.09" y1="1030.79" y2="1150.12"/>
  <line id="right-margin" style="fill:none;stroke:#00AEEF;stroke-width:0.5;opacity:1.0;" x1="1499.6" x2="1499.6" y1="1030.79" y2="1150.12"/>
 </g>
 <g id="Symbols">
  <g id="Black-L" transform="matrix(1 0 0 1 2858.16 1556)">
   <path d="M 75.2441 -112.646 C 64.7949 -112.646 55.3711 -106.396 51.6602 -96.3379 L 101.123 -46.875 L 101.123 -86.5723 C 101.123 -102.295 88.7207 -112.646 75.2441 -112.646 Z M 131.006 12.1582 C 133.301 14.3555 136.963 14.4043 139.16 12.1582 C 141.309 9.91211 141.406 6.29883 139.16 4.00391 L 27.2461 -107.764 C 25 -110.059 21.2891 -110.059 19.043 -107.764 C 16.8945 -105.615 16.8945 -101.855 19.043 -99.6582 Z M 17.6758 -41.7969 C 17.6758 -11.5723 38.2324 7.86133 65.8691 11.4258 L 65.8691 18.0664 L 43.75 18.0664 C 38.2812 18.0664 33.5449 22.5098 33.5449 27.9785 C 33.5449 33.3008 38.2812 37.8418 43.75 37.8418 L 106.738 37.8418 C 112.207 37.8418 116.943 33.3008 116.943 27.9785 C 116.943 22.5098 112.207 18.0664 106.738 18.0664 L 84.6191 18.0664 L 84.6191 11.4258 C 93.6035 10.2539 101.855 7.42188 108.838 3.07617 L 94.2871 -11.5723 C 88.7207 -8.74023 82.2266 -7.22656 75.2441 -7.22656 C 54.1016 -7.22656 37.9395 -20.8984 37.9395 -42.3828 L 37.9395 -53.3203 C 37.9395 -58.7402 33.252 -62.9395 27.7344 -62.9395 C 22.2168 -62.9395 17.6758 -58.7402 17.6758 -53.3203 Z M 111.963 -36.0352 L 128.467 -19.5312 C 131.299 -26.0742 132.812 -33.5449 132.812 -41.7969 L 132.812 -53.3203 C 132.812 -58.7402 128.271 -62.9395 122.754 -62.9395 C 117.236 -62.9395 112.549 -58.7402 112.549 -53.3203 L 112.549 -42.3828 C 112.549 -40.1367 112.354 -38.0371 111.963 -36.0352 Z M 75.2441 -18.4082 C 78.7109 -18.4082 82.1777 -19.1895 85.3027 -20.5078 L 49.2188 -56.5918 L 49.2188 -44.4336 C 49.2188 -28.6621 61.7188 -18.4082 75.2441 -18.4082 Z"/>
  </g>
  <g id="Heavy-L" transform="matrix(1 0 0 1 2564.33 1556)">
   <path d="M 72.3633 -111.182 C 61.4746 -111.182 52.3438 -104.248 49.4629 -93.5547 L 49.4629 -92.4805 L 96.9238 -45.0684 C 96.9727 -45.459 96.9727 -45.8984 96.9727 -46.3379 L 96.9727 -85.9375 C 96.9727 -101.074 85.5957 -111.182 72.3633 -111.182 Z M 125.879 11.2793 C 127.979 13.3789 131.445 13.3789 133.496 11.2793 C 135.498 9.17969 135.596 5.81055 133.496 3.71094 L 25.293 -104.395 C 23.1934 -106.494 19.7754 -106.494 17.627 -104.395 C 15.625 -102.344 15.625 -98.8281 17.627 -96.7773 Z M 17.9688 -41.4551 C 17.9688 -12.6953 37.4512 6.20117 64.2578 9.27734 L 64.2578 18.2129 L 41.6504 18.2129 C 36.9629 18.2129 32.8613 22.0215 32.8613 26.7578 C 32.8613 31.3965 36.9629 35.2539 41.6504 35.2539 L 103.027 35.2539 C 107.764 35.2539 111.816 31.3965 111.816 26.7578 C 111.816 22.0215 107.764 18.2129 103.027 18.2129 L 80.4688 18.2129 L 80.4688 9.27734 C 89.1113 8.30078 97.0215 5.66406 103.711 1.51367 L 91.2109 -11.0352 C 85.7422 -8.25195 79.3457 -6.68945 72.3633 -6.68945 C 51.0742 -6.68945 35.4004 -20.5566 35.4004 -41.9922 L 35.4004 -53.2227 C 35.4004 -57.9102 31.3965 -61.5234 26.6113 -61.5234 C 21.875 -61.5234 17.9688 -57.9102 17.9688 -53.2227 Z M 108.203 -33.7402 L 122.363 -19.6289 C 125.195 -26.0254 126.709 -33.3496 126.709 -41.4551 L 126.709 -53.2227 C 126.709 -57.9102 122.852 -61.5234 118.066 -61.5234 C 113.33 -61.5234 109.326 -57.9102 109.326 -53.2227 L 109.326 -41.9922 C 109.326 -39.0625 108.936 -36.2793 108.203 -33.7402 Z M 72.3633 -18.6523 C 75.5859 -18.6523 78.7598 -19.3359 81.6406 -20.5566 L 47.6074 -54.6387 L 47.6074 -43.7988 C 47.6074 -28.6621 59.082 -18.6523 72.3633 -18.6523 Z"/>
  </g>
  <g id="Bold-L" transform="matrix(1 0 0 1 2270.86 1556)">
   <path d="M 69.1406 -109.521 C 57.7637 -109.521 48.9746 -101.855 47.0215 -90.4297 L 47.0215 -88.1836 L 92.1875 -43.0176 C 92.2852 -43.5547 92.3828 -44.1406 92.3828 -44.7754 L 92.3828 -85.2539 C 92.3828 -99.707 82.0312 -109.521 69.1406 -109.521 Z M 120.117 10.3516 C 122.07 12.2559 125.244 12.3047 127.148 10.3516 C 129.004 8.39844 129.053 5.27344 127.148 3.32031 L 23.1445 -100.586 C 21.1914 -102.49 18.0176 -102.539 16.0645 -100.586 C 14.1602 -98.7305 14.1602 -95.459 16.0645 -93.5547 Z M 18.3105 -41.1133 C 18.3105 -13.916 36.6211 4.29688 62.4023 6.93359 L 62.4023 18.4082 L 39.3066 18.4082 C 35.4492 18.4082 32.1289 21.5332 32.1289 25.3906 C 32.1289 29.1992 35.4492 32.373 39.3066 32.373 L 98.9258 32.373 C 102.783 32.373 106.104 29.1992 106.104 25.3906 C 106.104 21.5332 102.783 18.4082 98.9258 18.4082 L 75.8301 18.4082 L 75.8301 6.93359 C 84.1309 6.10352 91.6016 3.66211 97.9004 -0.244141 L 87.7441 -10.4492 C 82.4219 -7.66602 76.123 -6.15234 69.1406 -6.15234 C 47.6562 -6.15234 32.5195 -20.166 32.5195 -41.5527 L 32.5195 -53.125 C 32.5195 -56.9824 29.2969 -59.9609 25.3906 -59.9609 C 21.4844 -59.9609 18.3105 -56.9824 18.3105 -53.125 Z M 104.053 -31.2012 L 115.479 -19.7754 C 118.359 -25.9766 119.922 -33.1543 119.922 -41.1133 L 119.922 -53.125 C 119.922 -56.9824 116.748 -59.9609 112.842 -59.9609 C 108.936 -59.9609 105.713 -56.9824 105.713 -53.125 L 105.713 -41.5527 C 105.713 -37.793 105.127 -34.3262 104.053 -31.2012 Z M 69.1406 -18.9453 C 72.0703 -18.9453 75 -19.5312 77.5391 -20.6055 L 45.8008 -52.3926 L 45.8008 -43.1152 C 45.8008 -28.7109 56.1523 -18.9453 69.1406 -18.9453 Z"/>
  </g>
  <g id="Semibold-L" transform="matrix(1 0 0 1 1976.37 1556)">
   <path d="M 66.8945 -108.35 C 55.2246 -108.35 46.6797 -100.195 45.3125 -88.2812 L 45.3125 -85.2539 L 88.9648 -41.6016 C 89.1113 -42.2852 89.1602 -42.9688 89.1602 -43.7012 L 89.1602 -84.8145 C 89.1602 -98.7305 79.6387 -108.35 66.8945 -108.35 Z M 116.162 9.66797 C 117.969 11.5234 120.996 11.5234 122.754 9.66797 C 124.561 7.86133 124.561 4.93164 122.754 3.07617 L 21.6309 -97.9492 C 19.8242 -99.7559 16.7969 -99.8047 14.9414 -97.9492 C 13.1836 -96.1914 13.1836 -93.1152 14.9414 -91.3574 Z M 18.5547 -40.8691 C 18.5547 -14.7949 36.0352 2.97852 61.1328 5.32227 L 61.1328 18.5059 L 37.6953 18.5059 C 34.375 18.5059 31.6406 21.1426 31.6406 24.4629 C 31.6406 27.6855 34.375 30.3711 37.6953 30.3711 L 96.0938 30.3711 C 99.3652 30.3711 102.148 27.6855 102.148 24.4629 C 102.148 21.1426 99.3652 18.5059 96.0938 18.5059 L 72.6562 18.5059 L 72.6562 5.32227 C 80.6641 4.58984 87.8906 2.29492 93.9453 -1.41602 L 85.3516 -10.0586 C 80.127 -7.27539 73.877 -5.71289 66.8945 -5.71289 C 45.3125 -5.71289 30.5664 -19.9219 30.5664 -41.2598 L 30.5664 -53.0273 C 30.5664 -56.2988 27.8809 -58.8867 24.5605 -58.8867 C 21.2402 -58.8867 18.5547 -56.2988 18.5547 -53.0273 Z M 101.172 -29.4434 L 110.742 -19.873 C 113.623 -25.9766 115.186 -33.0566 115.186 -40.8691 L 115.186 -53.0273 C 115.186 -56.2988 112.549 -58.8867 109.229 -58.8867 C 105.908 -58.8867 103.223 -56.2988 103.223 -53.0273 L 103.223 -41.2598 C 103.223 -36.9629 102.49 -33.0078 101.172 -29.4434 Z M 66.8945 -19.1406 C 69.6777 -19.1406 72.3633 -19.6777 74.7559 -20.6543 L 44.5312 -50.8301 L 44.5312 -42.6758 C 44.5312 -28.7109 54.1504 -19.1406 66.8945 -19.1406 Z"/>
  </g>
  <g id="Medium-L" transform="matrix(1 0 0 1 1681.37 1556)">
   <path d="M 65.1855 -107.52 C 53.2715 -107.52 44.9219 -98.9746 44.043 -86.6699 L 44.043 -83.0078 L 86.4746 -40.5273 C 86.6699 -41.2598 86.7676 -42.0898 86.7676 -42.9199 L 86.7676 -84.4238 C 86.7676 -98.0469 77.7832 -107.52 65.1855 -107.52 Z M 113.135 9.17969 C 114.893 10.9375 117.773 10.9375 119.434 9.17969 C 121.143 7.42188 121.191 4.63867 119.434 2.88086 L 20.459 -95.9961 C 18.75 -97.7051 15.918 -97.7539 14.1113 -95.9961 C 12.4512 -94.2871 12.4512 -91.3574 14.1113 -89.6973 Z M 18.75 -40.6738 C 18.75 -15.4297 35.5957 2.00195 60.1562 4.10156 L 60.1562 18.6035 L 36.4746 18.6035 C 33.5938 18.6035 31.25 20.8984 31.25 23.7305 C 31.25 26.5625 33.5938 28.8574 36.4746 28.8574 L 93.9453 28.8574 C 96.7773 28.8574 99.1211 26.5625 99.1211 23.7305 C 99.1211 20.8984 96.7773 18.6035 93.9453 18.6035 L 70.2148 18.6035 L 70.2148 4.10156 C 78.0273 3.4668 85.0586 1.26953 90.918 -2.34375 L 83.5449 -9.76562 C 78.3691 -6.98242 72.168 -5.41992 65.1855 -5.41992 C 43.5547 -5.41992 29.1016 -19.7266 29.1016 -41.0156 L 29.1016 -52.9785 C 29.1016 -55.8105 26.7578 -58.0566 23.9258 -58.0566 C 21.0449 -58.0566 18.75 -55.8105 18.75 -52.9785 Z M 98.9746 -28.0762 L 107.129 -19.9219 C 110.059 -25.9766 111.621 -32.959 111.621 -40.6738 L 111.621 -52.9785 C 111.621 -55.8105 109.326 -58.0566 106.494 -58.0566 C 103.613 -58.0566 101.318 -55.8105 101.318 -52.9785 L 101.318 -41.0156 C 101.318 -36.2793 100.488 -31.9824 98.9746 -28.0762 Z M 65.1855 -19.2871 C 67.8711 -19.2871 70.4102 -19.7754 72.6074 -20.7031 L 43.6035 -49.707 L 43.6035 -42.2852 C 43.6035 -28.7109 52.5879 -19.2871 65.1855 -19.2871 Z"/>
  </g>
  <g id="Regular-L" transform="matrix(1 0 0 1 1386.86 1556)">
   <path d="M 62.9883 -106.396 C 50.7324 -106.396 42.627 -97.3145 42.3828 -84.5215 L 42.3828 -80.0781 L 83.252 -39.1602 C 83.4961 -39.9902 83.5938 -40.918 83.5938 -41.8457 L 83.5938 -83.9844 C 83.5938 -97.0703 75.3906 -106.396 62.9883 -106.396 Z M 109.229 8.54492 C 110.84 10.1562 113.525 10.1562 115.088 8.54492 C 116.699 6.88477 116.748 4.29688 115.088 2.63672 L 18.9941 -93.3594 C 17.3828 -94.9707 14.6973 -95.0195 13.0371 -93.3594 C 11.4746 -91.7969 11.4746 -89.0625 13.0371 -87.5 Z M 18.9941 -40.4297 C 18.9941 -16.3086 35.0098 0.732422 58.9355 2.49023 L 58.9355 18.75 L 34.8633 18.75 C 32.5684 18.75 30.7617 20.5566 30.7617 22.8027 C 30.7617 25.0488 32.5684 26.9043 34.8633 26.9043 L 91.1621 26.9043 C 93.4082 26.9043 95.2148 25.0488 95.2148 22.8027 C 95.2148 20.5566 93.4082 18.75 91.1621 18.75 L 67.0898 18.75 L 67.0898 2.49023 C 74.6582 1.95312 81.3477 -0.0976562 87.0117 -3.51562 L 81.2012 -9.375 C 76.123 -6.5918 69.9707 -5.0293 62.9883 -5.0293 C 41.2598 -5.0293 27.1484 -19.4336 27.1484 -40.7227 L 27.1484 -52.9297 C 27.1484 -55.1758 25.3418 -56.9824 23.0469 -56.9824 C 20.8008 -56.9824 18.9941 -55.1758 18.9941 -52.9297 Z M 96.1426 -26.3184 L 102.441 -20.0195 C 105.371 -25.9277 106.982 -32.8125 106.982 -40.4297 L 106.982 -52.9297 C 106.982 -55.1758 105.176 -56.9824 102.93 -56.9824 C 100.635 -56.9824 98.8281 -55.1758 98.8281 -52.9297 L 98.8281 -40.7227 C 98.8281 -35.4492 97.9004 -30.6152 96.1426 -26.3184 Z M 62.9883 -19.4336 C 65.4785 -19.4336 67.8223 -19.873 69.8242 -20.7031 L 42.3828 -48.1934 L 42.3828 -41.8457 C 42.3828 -28.7109 50.5859 -19.4336 62.9883 -19.4336 Z"/>
  </g>
  <g id="Light-L" transform="matrix(1 0 0 1 1091.81 1556)">
   <path d="M 61.3281 -106.201 C 49.2676 -106.201 41.4062 -97.1191 41.2598 -84.668 L 41.2598 -77.5391 L 80.8594 -37.9883 C 81.2012 -39.3066 81.3965 -40.7227 81.3965 -42.1875 L 81.3965 -84.375 C 81.3965 -96.9727 73.4863 -106.201 61.3281 -106.201 Z M 107.52 6.93359 C 108.74 8.20312 110.84 8.20312 112.061 6.93359 C 113.33 5.66406 113.33 3.66211 112.061 2.39258 L 17.7734 -91.8457 C 16.5527 -93.0176 14.4531 -93.1641 13.1836 -91.8457 C 11.9141 -90.5762 11.9141 -88.5254 13.1836 -87.2559 Z M 18.7988 -40.2344 C 18.7988 -16.9434 34.4727 -0.341797 58.1543 1.02539 L 58.1543 19.4824 L 33.2031 19.4824 C 31.4453 19.4824 30.0293 20.8496 30.0293 22.6074 C 30.0293 24.3652 31.4453 25.7812 33.2031 25.7812 L 89.4531 25.7812 C 91.2109 25.7812 92.627 24.3652 92.627 22.6074 C 92.627 20.8496 91.2109 19.4824 89.4531 19.4824 L 64.502 19.4824 L 64.502 1.02539 C 72.6562 0.585938 79.8828 -1.66016 85.7422 -5.51758 L 81.25 -10.0098 C 75.7812 -6.73828 69.0918 -4.88281 61.3281 -4.88281 C 39.3066 -4.88281 25.0977 -19.3848 25.0977 -40.4297 L 25.0977 -52.3438 C 25.0977 -54.1016 23.7305 -55.5176 21.9727 -55.5176 C 20.2148 -55.5176 18.7988 -54.1016 18.7988 -52.3438 Z M 94.1895 -24.6582 L 99.0723 -19.7754 C 102.148 -25.6836 103.857 -32.5684 103.857 -40.2344 L 103.857 -52.3438 C 103.857 -54.1016 102.441 -55.5176 100.684 -55.5176 C 98.9258 -55.5176 97.5586 -54.1016 97.5586 -52.3438 L 97.5586 -40.4297 C 97.5586 -34.6191 96.3867 -29.2969 94.1895 -24.6582 Z M 61.3281 -20.3613 C 64.2578 -20.3613 66.8945 -20.9961 69.1406 -22.0703 L 41.2598 -49.9512 L 41.2598 -42.1875 C 41.2598 -29.5898 49.1699 -20.3613 61.3281 -20.3613 Z"/>
  </g>
  <g id="Thin-L" transform="matrix(1 0 0 1 797.291 1556)">
   <path d="M 59.1309 -105.957 C 47.3145 -105.957 39.8438 -96.875 39.7949 -84.9121 L 39.7949 -74.2676 L 77.6367 -36.4258 C 78.1738 -38.4277 78.4668 -40.4785 78.4668 -42.6758 L 78.4668 -84.8633 C 78.4668 -96.8262 70.9473 -105.957 59.1309 -105.957 Z M 105.225 4.83398 C 106.006 5.61523 107.275 5.61523 108.008 4.83398 C 108.887 4.00391 108.789 2.83203 108.008 2.05078 L 16.1133 -89.7949 C 15.4297 -90.4785 14.1602 -90.625 13.3301 -89.7949 C 12.5488 -89.0137 12.5488 -87.7441 13.3301 -86.9629 Z M 18.5547 -39.9902 C 18.5547 -17.7734 33.7402 -1.70898 57.1777 -0.830078 L 57.1777 20.459 L 31.0059 20.459 C 29.9316 20.459 29.0527 21.2891 29.0527 22.3633 C 29.0527 23.4375 29.9316 24.3164 31.0059 24.3164 L 87.2559 24.3164 C 88.3301 24.3164 89.209 23.4375 89.209 22.3633 C 89.209 21.2891 88.3301 20.459 87.2559 20.459 L 61.084 20.459 L 61.084 -0.830078 C 70.0684 -1.17188 77.8809 -3.75977 84.082 -8.10547 L 81.2988 -10.8887 C 75.3906 -6.93359 67.8711 -4.58984 59.1309 -4.58984 C 36.7676 -4.58984 22.4121 -19.3359 22.4121 -40.0391 L 22.4121 -51.6113 C 22.4121 -52.6855 21.582 -53.5645 20.5078 -53.5645 C 19.4336 -53.5645 18.5547 -52.6855 18.5547 -51.6113 Z M 91.6504 -22.4121 L 94.5801 -19.4824 C 97.9004 -25.3906 99.707 -32.2754 99.707 -39.9902 L 99.707 -51.6113 C 99.707 -52.6855 98.8281 -53.5645 97.7539 -53.5645 C 96.6797 -53.5645 95.8496 -52.6855 95.8496 -51.6113 L 95.8496 -40.0391 C 95.8496 -33.4961 94.3848 -27.5391 91.6504 -22.4121 Z M 59.1309 -21.582 C 62.5977 -21.582 65.7227 -22.4121 68.2617 -23.877 L 39.7949 -52.3438 L 39.7949 -42.6758 C 39.7949 -30.7129 47.3145 -21.582 59.1309 -21.582 Z"/>
  </g>
  <g id="Ultralight-L" transform="matrix(1 0 0 1 501.703 1556)">
   <path d="M 58.0078 -105.811 C 46.3379 -105.811 39.0137 -96.7285 39.0625 -85.0098 L 39.0625 -72.5586 L 76.0254 -35.5957 C 76.6113 -37.9395 76.9531 -40.332 76.9531 -42.9688 L 76.9531 -85.1074 C 76.9531 -96.7773 69.6777 -105.811 58.0078 -105.811 Z M 104.053 3.75977 C 104.59 4.29688 105.42 4.29688 105.957 3.75977 C 106.592 3.17383 106.494 2.39258 105.957 1.9043 L 15.2832 -88.7207 C 14.8438 -89.1602 14.0137 -89.3555 13.3789 -88.7207 C 12.8418 -88.1836 12.8418 -87.3535 13.3789 -86.8164 Z M 58.0078 -22.2168 C 61.7676 -22.2168 65.0879 -23.1445 67.8223 -24.7559 L 39.0625 -53.5645 L 39.0625 -42.9688 C 39.0625 -31.2988 46.3379 -22.2168 58.0078 -22.2168 Z M 18.457 -39.8926 C 18.457 -18.1641 33.3496 -2.39258 56.6895 -1.80664 L 56.6895 20.9473 L 29.834 20.9473 C 29.1504 20.9473 28.5645 21.5332 28.5645 22.2656 C 28.5645 22.9492 29.1504 23.5352 29.834 23.5352 L 86.1328 23.5352 C 86.8652 23.5352 87.4512 22.9492 87.4512 22.2656 C 87.4512 21.5332 86.8652 20.9473 86.1328 20.9473 L 59.3262 20.9473 L 59.3262 -1.80664 C 68.75 -2.09961 76.8555 -4.83398 83.2031 -9.47266 L 81.2988 -11.377 C 75.1465 -6.98242 67.2363 -4.49219 58.0078 -4.49219 C 35.498 -4.49219 21.0449 -19.3359 21.0449 -39.8438 L 21.0449 -51.2695 C 21.0449 -51.9531 20.459 -52.5391 19.7266 -52.5391 C 19.043 -52.5391 18.457 -51.9531 18.457 -51.2695 Z M 90.332 -21.2891 L 92.2363 -19.3359 C 95.7031 -25.1953 97.5586 -32.1289 97.5586 -39.8926 L 97.5586 -51.2695 C 97.5586 -51.9531 96.9727 -52.5391 96.2402 -52.5391 C 95.5566 -52.5391 94.9707 -51.9531 94.9707 -51.2695 L 94.9707 -39.8438 C 94.9707 -32.9102 93.3594 -26.6113 90.332 -21.2891 Z"/>
  </g>
  <g id="Black-M" transform="matrix(1 0 0 1 2872.07 1126)">
   <path d="M 61.3281 -97.1191 C 53.9062 -97.1191 46.3379 -93.1152 42.3828 -86.4258 L 82.7637 -46.0449 L 82.7637 -76.0254 C 82.7637 -88.8184 72.0215 -97.1191 61.3281 -97.1191 Z M 107.568 1.80664 C 109.326 3.4668 112.158 3.51562 113.867 1.80664 C 115.527 0.0488281 115.625 -2.7832 113.867 -4.49219 L 23.0957 -95.2148 C 21.3379 -96.9727 18.5059 -96.9727 16.748 -95.2148 C 15.0391 -93.5059 15.0391 -90.625 16.748 -88.916 Z M 13.1836 -40.625 C 13.1836 -15.7227 30.3711 -0.0976562 52.8809 2.97852 L 52.8809 6.25 L 35.8887 6.25 C 30.9082 6.25 26.4648 10.3027 26.4648 15.2832 C 26.4648 20.166 30.9082 24.3164 35.8887 24.3164 L 86.7676 24.3164 C 91.748 24.3164 96.1914 20.166 96.1914 15.2832 C 96.1914 10.3027 91.748 6.25 86.7676 6.25 L 69.7754 6.25 L 69.7754 2.97852 C 77.4902 1.9043 84.668 -0.585938 90.625 -4.49219 L 77.2461 -17.9688 C 72.6074 -15.4297 67.1387 -14.1113 61.3281 -14.1113 C 45.0195 -14.1113 31.7383 -24.5605 31.7383 -41.1621 L 31.7383 -49.0723 C 31.7383 -54.0039 27.4414 -57.7637 22.3633 -57.7637 C 17.334 -57.7637 13.1836 -54.0039 13.1836 -49.0723 Z M 90.7715 -38.0371 L 106.055 -22.7539 C 108.301 -28.0273 109.473 -34.0332 109.473 -40.625 L 109.473 -49.0723 C 109.473 -54.0039 105.322 -57.7637 100.244 -57.7637 C 95.2148 -57.7637 90.918 -54.0039 90.918 -49.0723 L 90.918 -41.1621 C 90.918 -40.0879 90.8691 -39.0625 90.7715 -38.0371 Z M 61.3281 -22.3633 C 64.5508 -22.3633 67.7734 -23.1445 70.6543 -24.4629 L 39.6973 -55.4199 L 39.6973 -43.4082 C 39.6973 -30.5664 50.5859 -22.3633 61.3281 -22.3633 Z"/>
  </g>
  <g id="Heavy-M" transform="matrix(1 0 0 1 2578.1 1126)">
   <path d="M 58.5938 -95.5566 C 50.6836 -95.5566 43.3594 -90.8691 40.2832 -83.3496 L 40.2832 -82.8613 L 78.7598 -44.3848 C 78.8086 -44.7266 78.8086 -45.0195 78.8086 -45.3613 L 78.8086 -75.293 C 78.8086 -87.5 69.043 -95.5566 58.5938 -95.5566 Z M 102.393 1.26953 C 104.053 2.88086 106.836 2.92969 108.447 1.26953 C 110.059 -0.439453 110.156 -3.125 108.447 -4.78516 L 21.2891 -91.8945 C 19.6289 -93.5547 16.8457 -93.6035 15.1855 -91.8945 C 13.5254 -90.2832 13.5254 -87.4512 15.1855 -85.8398 Z M 13.5742 -40.332 C 13.5742 -16.7969 29.6875 -1.66016 51.2695 1.07422 L 51.2695 6.25 L 33.9844 6.25 C 29.6875 6.25 25.9277 9.7168 25.9277 14.0137 C 25.9277 18.2129 29.6875 21.7773 33.9844 21.7773 L 83.2031 21.7773 C 87.5 21.7773 91.2598 18.2129 91.2598 14.0137 C 91.2598 9.7168 87.5 6.25 83.2031 6.25 L 65.918 6.25 L 65.918 1.07422 C 73.1445 0.146484 79.7852 -2.14844 85.3027 -5.71289 L 73.877 -17.2363 C 69.4336 -14.8438 64.209 -13.623 58.5938 -13.623 C 42.1875 -13.623 29.4922 -24.2188 29.4922 -40.8203 L 29.4922 -49.1211 C 29.4922 -53.3691 25.8301 -56.6406 21.4844 -56.6406 C 17.1387 -56.6406 13.5742 -53.3691 13.5742 -49.1211 Z M 87.207 -35.9863 L 100.195 -22.9492 C 102.441 -28.0762 103.613 -33.8867 103.613 -40.332 L 103.613 -49.1211 C 103.613 -53.3691 100.049 -56.6406 95.7031 -56.6406 C 91.3574 -56.6406 87.6953 -53.3691 87.6953 -49.1211 L 87.6953 -40.8203 C 87.6953 -39.1113 87.5488 -37.5 87.207 -35.9863 Z M 58.5938 -22.4121 C 61.4746 -22.4121 64.3066 -23.0469 66.8457 -24.1699 L 38.2324 -52.7832 L 38.2324 -42.627 C 38.2324 -30.3711 48.0957 -22.4121 58.5938 -22.4121 Z"/>
  </g>
  <g id="Bold-M" transform="matrix(1 0 0 1 2284.44 1126)">
   <path d="M 55.5664 -93.7988 C 47.0215 -93.7988 40.0391 -88.3301 37.9395 -79.8828 L 37.9395 -78.9062 L 74.3164 -42.5293 C 74.3652 -42.8711 74.4141 -43.2129 74.4141 -43.5547 L 74.4141 -74.4141 C 74.4141 -86.0352 65.7715 -93.7988 55.5664 -93.7988 Z M 96.582 0.683594 C 98.1934 2.24609 100.83 2.29492 102.393 0.683594 C 103.955 -0.927734 104.004 -3.51562 102.393 -5.12695 L 19.2383 -88.1836 C 17.6758 -89.7949 14.9902 -89.7949 13.3789 -88.1836 C 11.8652 -86.6211 11.8652 -83.9355 13.3789 -82.373 Z M 14.0137 -39.9902 C 14.0137 -17.9688 28.9062 -3.41797 49.4629 -1.12305 L 49.4629 6.20117 L 31.9336 6.20117 C 28.3691 6.20117 25.3418 9.0332 25.3418 12.5488 C 25.3418 16.0156 28.3691 18.9453 31.9336 18.9453 L 79.1992 18.9453 C 82.7148 18.9453 85.7422 16.0156 85.7422 12.5488 C 85.7422 9.0332 82.7148 6.20117 79.1992 6.20117 L 61.6211 6.20117 L 61.6211 -1.12305 C 68.2129 -1.85547 74.2676 -3.85742 79.3945 -7.03125 L 70.0684 -16.4062 C 65.8691 -14.209 60.9375 -13.0371 55.5664 -13.0371 C 39.0137 -13.0371 26.9531 -23.7793 26.9531 -40.3809 L 26.9531 -49.1699 C 26.9531 -52.6367 23.9746 -55.3711 20.459 -55.3711 C 16.8945 -55.3711 14.0137 -52.6367 14.0137 -49.1699 Z M 83.2031 -33.6914 L 93.7012 -23.1934 C 95.8984 -28.0762 97.0703 -33.7402 97.0703 -39.9902 L 97.0703 -49.1699 C 97.0703 -52.6367 94.1895 -55.3711 90.625 -55.3711 C 87.1094 -55.3711 84.1309 -52.6367 84.1309 -49.1699 L 84.1309 -40.3809 C 84.1309 -37.9883 83.7891 -35.7422 83.2031 -33.6914 Z M 55.5664 -22.4121 C 58.0078 -22.4121 60.4004 -22.9492 62.5977 -23.8281 L 36.5723 -49.8535 L 36.5723 -41.748 C 36.5723 -30.127 45.3125 -22.4121 55.5664 -22.4121 Z"/>
  </g>
  <g id="Semibold-M" transform="matrix(1 0 0 1 1989.82 1126)">
   <path d="M 53.418 -92.5781 C 44.5312 -92.5781 37.7441 -86.5723 36.2793 -77.4902 L 36.2793 -76.1719 L 71.2891 -41.2109 C 71.3379 -41.5527 71.3867 -41.9434 71.3867 -42.334 L 71.3867 -73.8281 C 71.3867 -85.0098 63.4766 -92.5781 53.418 -92.5781 Z M 92.5781 0.292969 C 94.1406 1.85547 96.7285 1.85547 98.2422 0.292969 C 99.7559 -1.26953 99.8047 -3.75977 98.2422 -5.32227 L 17.8711 -85.6445 C 16.3086 -87.207 13.7695 -87.207 12.1582 -85.6445 C 10.6934 -84.1309 10.6934 -81.543 12.1582 -80.0293 Z M 14.3066 -39.7949 C 14.3066 -18.7988 28.3691 -4.63867 48.2422 -2.58789 L 48.2422 6.20117 L 30.4688 6.20117 C 27.4902 6.20117 24.9512 8.59375 24.9512 11.5723 C 24.9512 14.502 27.4902 16.9434 30.4688 16.9434 L 76.416 16.9434 C 79.3945 16.9434 81.9336 14.502 81.9336 11.5723 C 81.9336 8.59375 79.3945 6.20117 76.416 6.20117 L 58.6426 6.20117 L 58.6426 -2.58789 C 64.8438 -3.22266 70.5078 -5.0293 75.293 -7.95898 L 67.4805 -15.8203 C 63.4277 -13.7695 58.6914 -12.6465 53.418 -12.6465 C 36.8652 -12.6465 25.2441 -23.5352 25.2441 -40.1367 L 25.2441 -49.2188 C 25.2441 -52.1484 22.7539 -54.4922 19.7266 -54.4922 C 16.748 -54.4922 14.3066 -52.1484 14.3066 -49.2188 Z M 80.4199 -32.0801 L 89.209 -23.291 C 91.4062 -28.125 92.5781 -33.6426 92.5781 -39.7949 L 92.5781 -49.2188 C 92.5781 -52.1484 90.1367 -54.4922 87.1582 -54.4922 C 84.1309 -54.4922 81.6406 -52.1484 81.6406 -49.2188 L 81.6406 -40.1367 C 81.6406 -37.207 81.25 -34.5215 80.4199 -32.0801 Z M 53.418 -22.4609 C 55.6152 -22.4609 57.7148 -22.8516 59.6191 -23.6328 L 35.4492 -47.8027 L 35.4492 -41.1621 C 35.4492 -29.9805 43.4082 -22.4609 53.418 -22.4609 Z"/>
  </g>
  <g id="Medium-M" transform="matrix(1 0 0 1 1694.7 1126)">
   <path d="M 51.8555 -91.6504 C 42.627 -91.6504 35.9863 -85.2051 35.0586 -75.6836 L 35.0586 -74.1211 L 68.9453 -40.2344 C 69.043 -40.5762 69.043 -40.9668 69.043 -41.3574 L 69.043 -73.3887 C 69.043 -84.2285 61.7676 -91.6504 51.8555 -91.6504 Z M 89.5508 0 C 91.1133 1.51367 93.6035 1.51367 95.0684 0 C 96.5332 -1.5625 96.582 -4.00391 95.0684 -5.51758 L 16.7969 -83.6914 C 15.2832 -85.2051 12.793 -85.2539 11.2793 -83.6914 C 9.76562 -82.2266 9.76562 -79.6875 11.2793 -78.2227 Z M 14.502 -39.5996 C 14.502 -19.3848 27.9785 -5.56641 47.3145 -3.71094 L 47.3145 6.20117 L 29.3945 6.20117 C 26.8066 6.20117 24.6582 8.25195 24.6582 10.8398 C 24.6582 13.3789 26.8066 15.4785 29.3945 15.4785 L 74.3164 15.4785 C 76.9043 15.4785 79.0527 13.3789 79.0527 10.8398 C 79.0527 8.25195 76.9043 6.20117 74.3164 6.20117 L 56.3965 6.20117 L 56.3965 -3.71094 C 62.3047 -4.29688 67.627 -5.95703 72.168 -8.64258 L 65.4785 -15.3809 C 61.5723 -13.4277 56.9824 -12.3535 51.8555 -12.3535 C 35.2051 -12.3535 23.9258 -23.291 23.9258 -39.9414 L 23.9258 -49.2188 C 23.9258 -51.8066 21.7773 -53.8086 19.1895 -53.8086 C 16.6016 -53.8086 14.502 -51.8066 14.502 -49.2188 Z M 78.3203 -30.8594 L 85.791 -23.4375 C 87.9883 -28.125 89.1602 -33.5938 89.1602 -39.5996 L 89.1602 -49.2188 C 89.1602 -51.8066 87.0605 -53.8086 84.4727 -53.8086 C 81.8848 -53.8086 79.7852 -51.8066 79.7852 -49.2188 L 79.7852 -39.9414 C 79.7852 -36.6211 79.2969 -33.5938 78.3203 -30.8594 Z M 51.8555 -22.4609 C 53.8086 -22.4609 55.7129 -22.8027 57.4219 -23.4375 L 34.5703 -46.2402 L 34.5703 -40.7227 C 34.5703 -29.8828 41.9434 -22.4609 51.8555 -22.4609 Z"/>
  </g>
  <g id="Regular-M" transform="matrix(1 0 0 1 1400.09 1126)">
   <path d="M 49.7559 -90.4785 C 40.1855 -90.4785 33.6914 -83.4961 33.4473 -73.3398 L 33.4473 -71.3867 L 65.918 -38.9648 C 66.0156 -39.3066 66.0645 -39.7461 66.0645 -40.1367 L 66.0645 -72.8027 C 66.0645 -83.252 59.5215 -90.4785 49.7559 -90.4785 Z M 85.6445 -0.390625 C 87.1094 1.07422 89.502 1.07422 90.9668 -0.390625 C 92.3828 -1.9043 92.4316 -4.24805 90.9668 -5.71289 L 15.4297 -81.2012 C 13.9648 -82.6172 11.5234 -82.666 10.0586 -81.2012 C 8.64258 -79.7363 8.64258 -77.2949 10.0586 -75.8789 Z M 14.8438 -39.3555 C 14.8438 -20.2148 27.4414 -6.78711 46.0938 -5.22461 L 46.0938 6.15234 L 27.9297 6.15234 C 25.8789 6.15234 24.2676 7.8125 24.2676 9.86328 C 24.2676 11.9141 25.8789 13.5254 27.9297 13.5254 L 71.582 13.5254 C 73.6328 13.5254 75.2441 11.9141 75.2441 9.86328 C 75.2441 7.8125 73.6328 6.15234 71.582 6.15234 L 53.4668 6.15234 L 53.4668 -5.22461 C 58.9355 -5.66406 63.916 -7.12891 68.1152 -9.52148 L 62.8906 -14.7949 C 59.1797 -12.9883 54.7363 -11.9629 49.7559 -11.9629 C 33.0566 -11.9629 22.2168 -22.998 22.2168 -39.6484 L 22.2168 -49.2676 C 22.2168 -51.3184 20.5566 -52.9297 18.5059 -52.9297 C 16.4551 -52.9297 14.8438 -51.3184 14.8438 -49.2676 Z M 75.6348 -29.2969 L 81.3477 -23.584 C 83.4961 -28.1738 84.7168 -33.4961 84.7168 -39.3555 L 84.7168 -49.2676 C 84.7168 -51.3184 83.0566 -52.9297 81.0059 -52.9297 C 78.9551 -52.9297 77.3438 -51.3184 77.3438 -49.2676 L 77.3438 -39.6484 C 77.3438 -35.8887 76.7578 -32.4219 75.6348 -29.2969 Z M 49.7559 -22.4609 C 51.4648 -22.4609 53.0762 -22.7051 54.4922 -23.2422 L 33.4473 -44.2383 L 33.4473 -40.1367 C 33.4473 -29.7363 40.0391 -22.4609 49.7559 -22.4609 Z"/>
  </g>
  <g id="Light-M" transform="matrix(1 0 0 1 1104.87 1126)">
   <path d="M 48.291 -90.2832 C 38.8672 -90.2832 32.6172 -83.3008 32.4707 -73.4863 L 32.4707 -69.1406 L 63.7207 -37.8906 C 63.9648 -38.7207 64.0625 -39.5508 64.0625 -40.4785 L 64.0625 -73.1445 C 64.0625 -83.1543 57.8125 -90.2832 48.291 -90.2832 Z M 84.082 -1.80664 C 85.2051 -0.683594 87.1094 -0.683594 88.2324 -1.80664 C 89.3555 -2.97852 89.3555 -4.83398 88.2324 -5.95703 L 14.3066 -79.7852 C 13.1836 -80.9082 11.3281 -80.957 10.1562 -79.7852 C 9.0332 -78.6621 9.0332 -76.7578 10.1562 -75.6836 Z M 14.6484 -39.209 C 14.6484 -20.752 26.9531 -7.71484 45.4102 -6.49414 L 45.4102 6.83594 L 26.4648 6.83594 C 24.8535 6.83594 23.584 8.10547 23.584 9.66797 C 23.584 11.2793 24.8535 12.5488 26.4648 12.5488 L 70.0684 12.5488 C 71.6797 12.5488 72.9492 11.2793 72.9492 9.66797 C 72.9492 8.10547 71.6797 6.83594 70.0684 6.83594 L 51.123 6.83594 L 51.123 -6.49414 C 57.1777 -6.83594 62.5488 -8.54492 66.9922 -11.3281 L 62.9395 -15.3809 C 58.8867 -13.0859 53.9551 -11.7676 48.291 -11.7676 C 31.3477 -11.7676 20.3613 -22.998 20.3613 -39.4043 L 20.3613 -48.7305 C 20.3613 -50.3418 19.0918 -51.6113 17.5293 -51.6113 C 15.918 -51.6113 14.6484 -50.3418 14.6484 -48.7305 Z M 73.877 -27.7832 L 78.2715 -23.3887 C 80.6152 -27.9297 81.8848 -33.3008 81.8848 -39.209 L 81.8848 -48.7305 C 81.8848 -50.3418 80.6152 -51.6113 79.0527 -51.6113 C 77.4414 -51.6113 76.1719 -50.3418 76.1719 -48.7305 L 76.1719 -39.4043 C 76.1719 -35.1074 75.3906 -31.2012 73.877 -27.7832 Z M 48.291 -23.291 C 50.3418 -23.291 52.2461 -23.6816 53.9062 -24.4141 L 32.4707 -45.8496 L 32.4707 -40.4785 C 32.4707 -30.4688 38.7695 -23.291 48.291 -23.291 Z"/>
  </g>
  <g id="Thin-M" transform="matrix(1 0 0 1 810.133 1126)">
   <path d="M 46.2891 -90.0879 C 37.1094 -90.0879 31.2012 -83.0566 31.1523 -73.6816 L 31.1523 -66.2109 L 60.8887 -36.4746 C 61.2305 -37.8906 61.4258 -39.3555 61.4258 -40.918 L 61.4258 -73.584 C 61.4258 -83.0078 55.5176 -90.0879 46.2891 -90.0879 Z M 82.0312 -3.71094 C 82.7637 -3.02734 83.8867 -3.02734 84.5703 -3.71094 C 85.3516 -4.44336 85.3027 -5.56641 84.5703 -6.25 L 12.8418 -77.9297 C 12.207 -78.6133 11.0352 -78.7109 10.3027 -77.9297 C 9.57031 -77.2461 9.57031 -76.0742 10.3027 -75.3906 Z M 14.4531 -38.9648 C 14.4531 -21.5332 26.3184 -8.93555 44.5312 -8.1543 L 44.5312 7.71484 L 24.4629 7.71484 C 23.5352 7.71484 22.7051 8.49609 22.7051 9.47266 C 22.7051 10.4492 23.5352 11.2305 24.4629 11.2305 L 68.1152 11.2305 C 69.0918 11.2305 69.873 10.4492 69.873 9.47266 C 69.873 8.49609 69.0918 7.71484 68.1152 7.71484 L 48.0469 7.71484 L 48.0469 -8.1543 C 54.8828 -8.44727 60.791 -10.4004 65.5273 -13.6719 L 62.9883 -16.2109 C 58.4961 -13.2324 52.8809 -11.5723 46.2891 -11.5723 C 29.0527 -11.5723 17.9688 -22.9492 17.9688 -39.0625 L 17.9688 -48.0957 C 17.9688 -49.0723 17.1875 -49.8535 16.2109 -49.8535 C 15.2344 -49.8535 14.4531 -49.0723 14.4531 -48.0957 Z M 71.582 -25.7812 L 74.2676 -23.0957 C 76.7578 -27.6855 78.1738 -33.0078 78.1738 -38.9648 L 78.1738 -48.0957 C 78.1738 -49.0723 77.3926 -49.8535 76.416 -49.8535 C 75.4395 -49.8535 74.6582 -49.0723 74.6582 -48.0957 L 74.6582 -39.0625 C 74.6582 -34.1309 73.584 -29.6387 71.582 -25.7812 Z M 46.2891 -24.4141 C 48.877 -24.4141 51.1719 -25 53.0762 -26.0254 L 31.1523 -47.9492 L 31.1523 -40.918 C 31.1523 -31.4941 37.0605 -24.4141 46.2891 -24.4141 Z"/>
  </g>
  <g id="Ultralight-M" transform="matrix(1 0 0 1 514.423 1126)">
   <path d="M 45.3125 -89.9902 C 36.1816 -89.9902 30.4688 -82.9102 30.4688 -73.7793 L 30.4688 -64.6973 L 59.4238 -35.7422 C 59.8633 -37.4512 60.1074 -39.2578 60.1074 -41.1133 L 60.1074 -73.7793 C 60.1074 -82.9102 54.3945 -89.9902 45.3125 -89.9902 Z M 81.0059 -4.6875 C 81.4941 -4.19922 82.2754 -4.19922 82.7637 -4.6875 C 83.3008 -5.22461 83.2031 -5.95703 82.7637 -6.39648 L 12.1094 -77.002 C 11.6699 -77.4414 10.8887 -77.5391 10.3516 -77.002 C 9.86328 -76.5137 9.86328 -75.7324 10.3516 -75.2441 Z M 45.3125 -24.9512 C 48.0957 -24.9512 50.6348 -25.6348 52.6855 -26.8555 L 30.4688 -49.0723 L 30.4688 -41.1133 C 30.4688 -31.9824 36.1816 -24.9512 45.3125 -24.9512 Z M 14.3066 -38.8672 C 14.3066 -21.875 25.9766 -9.57031 44.0918 -9.0332 L 44.0918 8.1543 L 23.4863 8.1543 C 22.8027 8.1543 22.2656 8.69141 22.2656 9.375 C 22.2656 10.0098 22.8027 10.5469 23.4863 10.5469 L 67.0898 10.5469 C 67.7734 10.5469 68.3105 10.0098 68.3105 9.375 C 68.3105 8.69141 67.7734 8.1543 67.0898 8.1543 L 46.4844 8.1543 L 46.4844 -9.0332 C 53.7109 -9.27734 59.8633 -11.3281 64.7461 -14.8438 L 62.9883 -16.6016 C 58.3008 -13.3301 52.2949 -11.4258 45.3125 -11.4258 C 27.8809 -11.4258 16.748 -22.9004 16.748 -38.8672 L 16.748 -47.7539 C 16.748 -48.4375 16.1621 -48.9746 15.5273 -48.9746 C 14.8438 -48.9746 14.3066 -48.4375 14.3066 -47.7539 Z M 70.4102 -24.7559 L 72.168 -22.9492 C 74.8047 -27.5391 76.2695 -32.8613 76.2695 -38.8672 L 76.2695 -47.7539 C 76.2695 -48.4375 75.7324 -48.9746 75.0488 -48.9746 C 74.4141 -48.9746 73.877 -48.4375 73.877 -47.7539 L 73.877 -38.8672 C 73.877 -33.5938 72.6562 -28.8574 70.4102 -24.7559 Z"/>
  </g>
  <g id="Black-S" transform="matrix(1 0 0 1 2885.55 696)">
   <path d="M 47.8516 -83.5938 C 41.9922 -83.5938 36.084 -80.4199 33.0566 -75.0977 L 64.5508 -43.6035 L 64.5508 -67.1387 C 64.5508 -77.0996 56.2012 -83.5938 47.8516 -83.5938 Z M 83.8867 -6.25 C 85.2539 -4.93164 87.5 -4.88281 88.8184 -6.25 C 90.1367 -7.61719 90.1855 -9.81445 88.8184 -11.1816 L 17.9688 -81.9824 C 16.6016 -83.3496 14.3555 -83.3496 12.9883 -81.9824 C 11.6699 -80.6641 11.6699 -78.3691 12.9883 -77.0508 Z M 10.3516 -39.4531 C 10.3516 -20.0195 23.7305 -7.8125 41.3086 -5.41992 L 41.3086 -2.73438 L 27.9785 -2.73438 C 24.1211 -2.73438 20.7031 0.390625 20.7031 4.24805 C 20.7031 8.00781 24.1211 11.2305 27.9785 11.2305 L 67.7246 11.2305 C 71.582 11.2305 75 8.00781 75 4.24805 C 75 0.390625 71.582 -2.73438 67.7246 -2.73438 L 54.3945 -2.73438 L 54.3945 -5.41992 C 60.4004 -6.25 65.9668 -8.20312 70.6055 -11.2305 L 60.2539 -21.6309 C 56.6406 -19.6777 52.3926 -18.6523 47.8516 -18.6523 C 35.0586 -18.6523 24.707 -26.8555 24.707 -39.8438 L 24.707 -46.0938 C 24.707 -49.9023 21.3867 -52.832 17.4805 -52.832 C 13.5742 -52.832 10.3516 -49.9023 10.3516 -46.0938 Z M 70.8496 -37.3047 L 82.666 -25.4883 C 84.4238 -29.5898 85.3516 -34.2773 85.3516 -39.4531 L 85.3516 -46.0938 C 85.3516 -49.9023 82.1289 -52.832 78.2227 -52.832 C 74.3164 -52.832 70.9961 -49.9023 70.9961 -46.0938 L 70.9961 -39.8438 C 70.9961 -38.9648 70.9473 -38.1348 70.8496 -37.3047 Z M 47.8516 -25.1465 C 50.3418 -25.1465 52.832 -25.7324 55.0781 -26.7578 L 31.0059 -50.8301 L 31.0059 -41.5527 C 31.0059 -31.543 39.4531 -25.1465 47.8516 -25.1465 Z"/>
  </g>
  <g id="Heavy-S" transform="matrix(1 0 0 1 2590.77 696)">
   <path d="M 45.9473 -82.4219 C 39.6484 -82.4219 33.9355 -78.7109 31.543 -72.7051 L 31.543 -72.6074 L 61.7676 -42.4316 C 61.7676 -42.627 61.7676 -42.8223 61.7676 -43.0176 L 61.7676 -66.5039 C 61.7676 -76.123 54.1504 -82.4219 45.9473 -82.4219 Z M 80.0781 -6.49414 C 81.4453 -5.17578 83.6914 -5.12695 84.9609 -6.49414 C 86.2793 -7.86133 86.3281 -10.0098 84.9609 -11.377 L 16.6992 -79.5898 C 15.332 -80.957 13.1348 -80.957 11.7676 -79.5898 C 10.4492 -78.3203 10.4492 -76.0254 11.7676 -74.707 Z M 10.6445 -39.2578 C 10.6445 -20.752 23.2422 -8.93555 40.1367 -6.73828 L 40.1367 -2.83203 L 26.709 -2.83203 C 23.3398 -2.83203 20.3613 -0.0976562 20.3613 3.27148 C 20.3613 6.5918 23.3398 9.375 26.709 9.375 L 65.1367 9.375 C 68.5059 9.375 71.4844 6.5918 71.4844 3.27148 C 71.4844 -0.0976562 68.5059 -2.83203 65.1367 -2.83203 L 51.709 -2.83203 L 51.709 -6.73828 C 57.2266 -7.4707 62.3535 -9.22852 66.6504 -11.9629 L 57.666 -20.9961 C 54.248 -19.2383 50.2441 -18.2617 45.9473 -18.2617 C 33.1055 -18.2617 23.1934 -26.5625 23.1934 -39.5996 L 23.1934 -46.1914 C 23.1934 -49.5117 20.3125 -52.0996 16.8945 -52.0996 C 13.4766 -52.0996 10.6445 -49.5117 10.6445 -46.1914 Z M 68.3105 -35.8887 L 78.5645 -25.6348 C 80.2734 -29.6387 81.2012 -34.1797 81.2012 -39.2578 L 81.2012 -46.1914 C 81.2012 -49.5117 78.3691 -52.0996 74.9512 -52.0996 C 71.5332 -52.0996 68.6523 -49.5117 68.6523 -46.1914 L 68.6523 -39.5996 C 68.6523 -38.2812 68.5547 -37.0605 68.3105 -35.8887 Z M 45.9473 -25.0488 C 48.0957 -25.0488 50.2441 -25.5371 52.1973 -26.416 L 29.9805 -48.6328 L 29.9805 -40.918 C 29.9805 -31.2988 37.6953 -25.0488 45.9473 -25.0488 Z"/>
  </g>
  <g id="Bold-S" transform="matrix(1 0 0 1 2296.2 696)">
   <path d="M 43.7988 -81.1035 C 37.0605 -81.1035 31.4941 -76.7578 29.8828 -70.0684 L 29.8828 -69.873 L 58.6426 -41.1133 C 58.6426 -41.3086 58.6426 -41.4551 58.6426 -41.6016 L 58.6426 -65.8203 C 58.6426 -75 51.8066 -81.1035 43.7988 -81.1035 Z M 75.8789 -6.73828 C 77.1973 -5.41992 79.3945 -5.41992 80.7129 -6.73828 C 81.9824 -8.10547 82.0312 -10.2539 80.7129 -11.5723 L 15.2832 -76.9531 C 13.9648 -78.2715 11.7676 -78.2715 10.4004 -76.9531 C 9.13086 -75.6348 9.13086 -73.3887 10.4004 -72.1191 Z M 11.0352 -39.0137 C 11.0352 -21.582 22.7539 -10.1562 38.8672 -8.25195 L 38.8672 -2.92969 L 25.293 -2.92969 C 22.4609 -2.92969 20.0195 -0.634766 20.0195 2.19727 C 20.0195 5.0293 22.4609 7.32422 25.293 7.32422 L 62.2559 7.32422 C 65.0879 7.32422 67.5293 5.0293 67.5293 2.19727 C 67.5293 -0.634766 65.0879 -2.92969 62.2559 -2.92969 L 48.6816 -2.92969 L 48.6816 -8.25195 C 53.7109 -8.83789 58.3496 -10.3516 62.2559 -12.7441 L 54.7852 -20.2637 C 51.5625 -18.7012 47.8516 -17.8711 43.7988 -17.8711 C 30.9082 -17.8711 21.4844 -26.2695 21.4844 -39.3555 L 21.4844 -46.2891 C 21.4844 -49.0723 19.0918 -51.2695 16.2109 -51.2695 C 13.3789 -51.2695 11.0352 -49.0723 11.0352 -46.2891 Z M 65.4785 -34.3262 L 73.9258 -25.8301 C 75.6348 -29.6875 76.5625 -34.1309 76.5625 -39.0137 L 76.5625 -46.2891 C 76.5625 -49.0723 74.2188 -51.2695 71.3379 -51.2695 C 68.457 -51.2695 66.0645 -49.0723 66.0645 -46.2891 L 66.0645 -39.3555 C 66.0645 -37.5488 65.8691 -35.8887 65.4785 -34.3262 Z M 43.7988 -25 C 45.6055 -25 47.4121 -25.3418 49.0234 -25.9766 L 28.8574 -46.1914 L 28.8574 -40.2344 C 28.8574 -31.0547 35.6934 -25 43.7988 -25 Z"/>
  </g>
  <g id="Semibold-S" transform="matrix(1 0 0 1 2000.96 696)">
   <path d="M 42.2852 -80.1758 C 35.2539 -80.1758 29.834 -75.4395 28.7109 -68.2129 L 28.7109 -67.9688 L 56.4453 -40.2344 C 56.4941 -40.332 56.4941 -40.4785 56.4941 -40.625 L 56.4941 -65.332 C 56.4941 -74.2188 50.2441 -80.1758 42.2852 -80.1758 Z M 72.9492 -6.93359 C 74.2676 -5.61523 76.4648 -5.61523 77.7344 -6.93359 C 79.0039 -8.25195 79.0527 -10.4004 77.7344 -11.7188 L 14.3066 -75.0977 C 12.9883 -76.416 10.791 -76.4648 9.47266 -75.0977 C 8.20312 -73.8281 8.20312 -71.582 9.47266 -70.3125 Z M 11.2793 -38.8184 C 11.2793 -22.168 22.3633 -10.9863 37.9883 -9.27734 L 37.9883 -2.97852 L 24.3164 -2.97852 C 21.8262 -2.97852 19.7754 -1.02539 19.7754 1.46484 C 19.7754 3.90625 21.8262 5.9082 24.3164 5.9082 L 60.2539 5.9082 C 62.7441 5.9082 64.8438 3.90625 64.8438 1.46484 C 64.8438 -1.02539 62.7441 -2.97852 60.2539 -2.97852 L 46.6309 -2.97852 L 46.6309 -9.27734 C 51.2695 -9.81445 55.5664 -11.1328 59.2285 -13.2812 L 52.7832 -19.7754 C 49.707 -18.3594 46.1914 -17.5781 42.2852 -17.5781 C 29.3945 -17.5781 20.3125 -26.0742 20.3125 -39.1602 L 20.3125 -46.3379 C 20.3125 -48.7793 18.2617 -50.7324 15.7715 -50.7324 C 13.2812 -50.7324 11.2793 -48.7793 11.2793 -46.3379 Z M 63.5254 -33.2031 L 70.752 -25.9766 C 72.4121 -29.7363 73.3398 -34.0332 73.3398 -38.8184 L 73.3398 -46.3379 C 73.3398 -48.7793 71.2891 -50.7324 68.7988 -50.7324 C 66.3086 -50.7324 64.2578 -48.7793 64.2578 -46.3379 L 64.2578 -39.1602 C 64.2578 -37.0117 64.0137 -35.0586 63.5254 -33.2031 Z M 42.2852 -24.9512 C 43.8477 -24.9512 45.4102 -25.1953 46.8262 -25.7324 L 28.0762 -44.4824 L 28.0762 -39.7461 C 28.0762 -30.8594 34.375 -24.9512 42.2852 -24.9512 Z"/>
  </g>
  <g id="Medium-S" transform="matrix(1 0 0 1 1705.37 696)">
   <path d="M 41.1621 -79.4922 C 33.8867 -79.4922 28.5645 -74.4141 27.832 -66.8457 L 27.832 -66.5039 L 54.834 -39.5508 C 54.834 -39.6484 54.834 -39.7949 54.834 -39.8926 L 54.834 -64.9902 C 54.834 -73.6328 49.0234 -79.4922 41.1621 -79.4922 Z M 70.7031 -7.08008 C 72.0215 -5.76172 74.2188 -5.76172 75.4883 -7.08008 C 76.7578 -8.39844 76.8066 -10.5469 75.4883 -11.8652 L 13.5742 -73.7305 C 12.2559 -75.0488 10.1074 -75.0488 8.74023 -73.7305 C 7.4707 -72.4609 7.4707 -70.2148 8.74023 -68.9453 Z M 11.4746 -38.7207 C 11.4746 -22.6074 22.1191 -11.6699 37.3047 -10.0586 L 37.3047 -3.02734 L 23.584 -3.02734 C 21.3867 -3.02734 19.5801 -1.26953 19.5801 0.927734 C 19.5801 3.07617 21.3867 4.83398 23.584 4.83398 L 58.7891 4.83398 C 60.9863 4.83398 62.793 3.07617 62.793 0.927734 C 62.793 -1.26953 60.9863 -3.02734 58.7891 -3.02734 L 45.0684 -3.02734 L 45.0684 -10.0586 C 49.4629 -10.5469 53.4668 -11.7676 56.9336 -13.7207 L 51.2695 -19.4336 C 48.3398 -18.1152 44.9219 -17.334 41.1621 -17.334 C 28.2227 -17.334 19.4336 -25.8789 19.4336 -39.0137 L 19.4336 -46.3867 C 19.4336 -48.584 17.627 -50.293 15.4297 -50.293 C 13.2324 -50.293 11.4746 -48.584 11.4746 -46.3867 Z M 62.0117 -32.373 L 68.3594 -26.0742 C 70.0195 -29.7852 70.8984 -34.0332 70.8984 -38.7207 L 70.8984 -46.3867 C 70.8984 -48.584 69.1406 -50.293 66.9434 -50.293 C 64.6973 -50.293 62.9395 -48.584 62.9395 -46.3867 L 62.9395 -39.0137 C 62.9395 -36.6211 62.5977 -34.4238 62.0117 -32.373 Z M 41.1621 -24.9023 C 42.5293 -24.9023 43.8965 -25.0977 45.166 -25.4883 L 27.4902 -43.1641 L 27.4902 -39.4043 C 27.4902 -30.7129 33.3008 -24.9023 41.1621 -24.9023 Z"/>
  </g>
  <g id="Regular-S" transform="matrix(1 0 0 1 1410.12 696)">
   <path d="M 39.6973 -78.5645 C 32.1289 -78.5645 26.9531 -73.0957 26.709 -64.9902 L 26.709 -64.6484 L 52.6855 -38.6719 C 52.6855 -38.7207 52.7344 -38.8184 52.7344 -38.916 L 52.7344 -64.502 C 52.7344 -72.9004 47.4609 -78.5645 39.6973 -78.5645 Z M 67.8223 -7.27539 C 69.1406 -5.95703 71.2891 -5.95703 72.5586 -7.27539 C 73.8281 -8.59375 73.877 -10.6934 72.5586 -12.0117 L 12.5977 -71.9238 C 11.3281 -73.1934 9.13086 -73.2422 7.8125 -71.9238 C 6.54297 -70.6543 6.54297 -68.4082 7.8125 -67.1387 Z M 11.6699 -38.5254 C 11.6699 -23.1934 21.7285 -12.5 36.4258 -11.084 L 36.4258 -3.125 L 22.6074 -3.125 C 20.8008 -3.125 19.3359 -1.66016 19.3359 0.146484 C 19.3359 2.00195 20.8008 3.4668 22.6074 3.4668 L 56.7871 3.4668 C 58.6426 3.4668 60.1074 2.00195 60.1074 0.146484 C 60.1074 -1.66016 58.6426 -3.125 56.7871 -3.125 L 43.0176 -3.125 L 43.0176 -11.084 C 47.0215 -11.4746 50.7324 -12.5 53.9062 -14.2578 L 49.2676 -18.9453 C 46.4844 -17.7246 43.2617 -17.041 39.6973 -17.041 C 26.7578 -17.041 18.2617 -25.6836 18.2617 -38.8184 L 18.2617 -46.4355 C 18.2617 -48.291 16.7969 -49.7559 14.9902 -49.7559 C 13.1348 -49.7559 11.6699 -48.291 11.6699 -46.4355 Z M 60.0586 -31.2988 L 65.1855 -26.1719 C 66.8457 -29.7852 67.7246 -33.9355 67.7246 -38.5254 L 67.7246 -46.4355 C 67.7246 -48.291 66.2598 -49.7559 64.4531 -49.7559 C 62.5977 -49.7559 61.1328 -48.291 61.1328 -46.4355 L 61.1328 -38.8184 C 61.1328 -36.1328 60.791 -33.5938 60.0586 -31.2988 Z M 39.6973 -24.8535 C 40.8203 -24.8535 41.9434 -24.9512 42.9688 -25.2441 L 26.709 -41.5039 L 26.709 -38.916 C 26.709 -30.5176 31.9824 -24.8535 39.6973 -24.8535 Z"/>
  </g>
  <g id="Light-S" transform="matrix(1 0 0 1 1114.75 696)">
   <path d="M 38.3789 -78.418 C 30.957 -78.418 25.9766 -72.9492 25.8301 -65.1367 L 25.8301 -62.6465 L 50.7812 -37.6953 C 50.8789 -38.1836 50.9766 -38.6719 50.9766 -39.209 L 50.9766 -64.7949 C 50.9766 -72.8027 45.9473 -78.418 38.3789 -78.418 Z M 66.4551 -8.49609 C 67.4805 -7.4707 69.1406 -7.4707 70.166 -8.49609 C 71.1426 -9.57031 71.1914 -11.1816 70.166 -12.207 L 11.6211 -70.6543 C 10.6445 -71.6797 8.93555 -71.7285 7.91016 -70.6543 C 6.93359 -69.6777 6.93359 -67.9688 7.91016 -66.9922 Z M 11.5234 -38.3789 C 11.5234 -23.6816 21.2891 -13.3301 35.8398 -12.207 L 35.8398 -2.53906 L 21.2891 -2.53906 C 19.873 -2.53906 18.75 -1.41602 18.75 0 C 18.75 1.46484 19.873 2.58789 21.2891 2.58789 L 55.4688 2.58789 C 56.8848 2.58789 58.0566 1.46484 58.0566 0 C 58.0566 -1.41602 56.8848 -2.53906 55.4688 -2.53906 L 40.9668 -2.53906 L 40.9668 -12.207 C 45.5078 -12.5488 49.5117 -13.7695 52.9297 -15.8203 L 49.3164 -19.4824 C 46.2402 -17.8223 42.5781 -16.8945 38.3789 -16.8945 C 25.1953 -16.8945 16.6504 -25.6348 16.6504 -38.5742 L 16.6504 -45.9961 C 16.6504 -47.4609 15.5273 -48.584 14.1113 -48.584 C 12.6953 -48.584 11.5234 -47.4609 11.5234 -45.9961 Z M 58.5449 -29.9805 L 62.5 -26.0254 C 64.2578 -29.5898 65.2344 -33.7891 65.2344 -38.3789 L 65.2344 -45.9961 C 65.2344 -47.4609 64.1113 -48.584 62.6953 -48.584 C 61.2793 -48.584 60.1074 -47.4609 60.1074 -45.9961 L 60.1074 -38.5742 C 60.1074 -35.4492 59.5703 -32.5684 58.5449 -29.9805 Z M 38.3789 -25.5859 C 39.8438 -25.5859 41.2598 -25.8301 42.4316 -26.3184 L 25.8301 -42.9199 L 25.8301 -39.209 C 25.8301 -31.2012 30.8594 -25.5859 38.3789 -25.5859 Z"/>
  </g>
  <g id="Thin-S" transform="matrix(1 0 0 1 819.777 696)">
   <path d="M 36.6699 -78.2715 C 29.3945 -78.2715 24.707 -72.7539 24.6582 -65.332 L 24.6582 -60.0586 L 48.2422 -36.4746 C 48.4863 -37.4512 48.6328 -38.5254 48.6328 -39.5996 L 48.6328 -65.1855 C 48.6328 -72.7051 43.9453 -78.2715 36.6699 -78.2715 Z M 64.6484 -10.1562 C 65.2832 -9.52148 66.3574 -9.52148 66.9434 -10.1562 C 67.627 -10.8398 67.5781 -11.8164 66.9434 -12.4512 L 10.3516 -69.043 C 9.76562 -69.6289 8.69141 -69.7266 8.00781 -69.043 C 7.42188 -68.4082 7.42188 -67.3828 8.00781 -66.748 Z M 11.377 -38.2324 C 11.377 -24.3164 20.752 -14.4043 35.0586 -13.7207 L 35.0586 -1.75781 L 19.5801 -1.75781 C 18.7012 -1.75781 17.9688 -1.07422 17.9688 -0.146484 C 17.9688 0.732422 18.7012 1.41602 19.5801 1.41602 L 53.7598 1.41602 C 54.6387 1.41602 55.3223 0.732422 55.3223 -0.146484 C 55.3223 -1.07422 54.6387 -1.75781 53.7598 -1.75781 L 38.2324 -1.75781 L 38.2324 -13.7207 C 43.457 -13.9648 47.9492 -15.4297 51.6113 -17.8711 L 49.3164 -20.166 C 45.8984 -17.9688 41.6016 -16.748 36.6699 -16.748 C 23.1934 -16.748 14.5508 -25.6348 14.5508 -38.2812 L 14.5508 -45.459 C 14.5508 -46.3379 13.8184 -47.0215 12.9395 -47.0215 C 12.0605 -47.0215 11.377 -46.3379 11.377 -45.459 Z M 56.4941 -28.2227 L 58.9355 -25.7812 C 60.8887 -29.3457 61.9629 -33.5449 61.9629 -38.2324 L 61.9629 -45.459 C 61.9629 -46.3379 61.2305 -47.0215 60.3516 -47.0215 C 59.4727 -47.0215 58.7891 -46.3379 58.7891 -45.459 L 58.7891 -38.2812 C 58.7891 -34.5703 58.0078 -31.1523 56.4941 -28.2227 Z M 36.6699 -26.5137 C 38.5742 -26.5137 40.2832 -26.9531 41.748 -27.7344 L 24.6582 -44.8242 L 24.6582 -39.5996 C 24.6582 -32.0801 29.3457 -26.5137 36.6699 -26.5137 Z"/>
  </g>
  <g id="Ultralight-S" transform="matrix(1 0 0 1 523.969 696)">
   <path d="M 35.7422 -78.125 C 28.6133 -78.125 24.0723 -72.6562 24.0723 -65.4297 L 24.0723 -58.6914 L 46.9238 -35.8398 C 47.2656 -37.1094 47.4609 -38.3789 47.4609 -39.7949 L 47.4609 -65.3809 C 47.4609 -72.6074 42.9199 -78.125 35.7422 -78.125 Z M 63.7207 -11.0352 C 64.1602 -10.5957 64.8926 -10.5957 65.332 -11.0352 C 65.8203 -11.5234 65.7715 -12.1582 65.332 -12.5977 L 9.66797 -68.2129 C 9.27734 -68.6035 8.59375 -68.7012 8.10547 -68.2129 C 7.66602 -67.7734 7.66602 -67.041 8.10547 -66.6504 Z M 11.2305 -38.0859 C 11.2305 -24.6582 20.4102 -14.9414 34.668 -14.4531 L 34.668 -1.36719 L 18.6523 -1.36719 C 18.0664 -1.36719 17.5781 -0.878906 17.5781 -0.292969 C 17.5781 0.341797 18.0664 0.830078 18.6523 0.830078 L 52.832 0.830078 C 53.4668 0.830078 53.9551 0.341797 53.9551 -0.292969 C 53.9551 -0.878906 53.4668 -1.36719 52.832 -1.36719 L 36.8652 -1.36719 L 36.8652 -14.4531 C 42.3828 -14.6973 47.168 -16.2598 50.9277 -18.9453 L 49.3652 -20.5078 C 45.752 -18.0664 41.1133 -16.6016 35.7422 -16.6016 C 22.168 -16.6016 13.4277 -25.5859 13.4277 -38.1348 L 13.4277 -45.1172 C 13.4277 -45.752 12.9395 -46.2402 12.3535 -46.2402 C 11.7188 -46.2402 11.2305 -45.752 11.2305 -45.1172 Z M 55.4688 -27.2949 L 57.1289 -25.6836 C 59.1309 -29.248 60.2539 -33.4473 60.2539 -38.0859 L 60.2539 -45.1172 C 60.2539 -45.752 59.7656 -46.2402 59.1797 -46.2402 C 58.5449 -46.2402 58.0566 -45.752 58.0566 -45.1172 L 58.0566 -38.1348 C 58.0566 -34.082 57.1777 -30.4199 55.4688 -27.2949 Z M 35.7422 -27.0508 C 37.8906 -27.0508 39.7949 -27.5391 41.4062 -28.4668 L 24.0723 -45.752 L 24.0723 -39.7949 C 24.0723 -32.5684 28.6133 -27.0508 35.7422 -27.0508 Z"/>
  </g>
 </g>
</svg>
